<svg xmlns="http://www.w3.org/2000/svg" viewBox="0 0 16 16" enable-background="new 0 0 16 16"><style type="text/css">.st0{fill:#FF5500;stroke:#FF5500;stroke-miterlimit:10;}</style><path class="st0" d="M4.9 3.5l2.8 8.9s0 .1-.1.1h-1.1l-.1-.1-.5-1.8c0-.1 0-.1-.1-.1h-3.4s-.1 0-.1.1l-.6 1.8s0 .1-.1.1h-1s-.1 0-.1-.1l2.8-8.8s0-.1.1-.1h1.5zm.6 6l-1.3-4.7c0-.1-.1-.1-.1 0l-1.5 4.6s0 .1.1.1h2.8zM9.5 3.5h3.6c1.3 0 2.2 1.2 2.2 2.5 0 .8-.5 1.5-.9 1.7-.1 0-.1.1 0 .1.6.2 1.1 1.2 1.1 2.1 0 1.5-1 2.5-2.4 2.5h-3.6s-.1 0-.1-.1l.1-8.8zm3.4 1.1h-2.3s-.1 0-.1.1v2.6s0 .1.1.1h2.3c.6 0 1.3-.5 1.3-1.3s-.5-1.5-1.3-1.5zm-2.3 3.8l-.1 2.9s0 .1.1.1h2.3c.9 0 1.5-.7 1.5-1.5 0-.7-.6-1.5-1.4-1.5h-2.4z"/></svg>