<svg xmlns="http://www.w3.org/2000/svg" viewBox="0 0 500 161.8" enable-background="new 0 0 500 161.8"><style type="text/css">.st0{fill:none;stroke:#9DFEFF;stroke-miterlimit:10;}</style><path class="st0" d="M253.3 72.7l6.7-16M46.7 98.3l6.6-11.5M386.7 37.8l6.6 10.4M280 7.9l6.7 10.2M286.7 12.4l6.6 10M386.7 37.7l6.6 9.8M266.7 60.9v11.7M20 126.2l6.7-9.6M20 105.2l6.7-9.3M253.3 63.8l6.7-9.3M320 36.8l6.7 9.1M320 28.9l6.7 9M200 95.3l6.7 9M373.3 103.5l6.7-9M373.3 106.2l6.7-8.7M40 123l6.7-8.7M313.3 37.4l6.7 8.4M333.3 30.7l6.7 8.4M20 108.2l6.7-8.4M373.3 102.5l6.7-8.3M46.7 94.6l6.6-8.3M0 134.5l6.7-8.3M0 124.4l6.7-8.3M20.2 127.9l6.5-8.4M6.7 95.2v10.5M373.3 108.2l6.7-8.1M280 5.5l6.7 8.1M20.4 98.6l6.3-8.3M340 53.2l6.7 7.9M0 116.6l6.7-7.9M286.7 13.6l5 8.9M60 82.7l6.7-7.8M6.7 112.5l6.6-7.7M213.3 27.8v10.3M273.3 6l6.7 7.7M66.7 81.4l6.6-7.6M380 94.5l6.7-7.6M380 97.5l6.7-7.7M320 33.6l6.7 7.6M253.3 74.1l6.7-7.5M346.7 47.5l6.6 7.5M20 99.1l6.7-7.5M66.7 83.1l6.6-7.5M66.7 89.4l6.6-7.4M20 123.6l6.7-7.3M20 128.1l6.7-7.4M93.3 59.6l6.7-7.4M266.7 2.3l6.6 7.4M260 56.7v9.9M0 125.1l6.7-7.3M380 100.1l6.7-7.2M380 110l6.7-7.2M333.3 54l6.7 7.2M380 94.2l6.6-7.3M493.6 71.3l6.4-7.4M340 51.7l6.7 7.1M33.3 92l6.7-7.1M60 96.5l6.7-7.1M393.3 102.7l-6.6 7.1M86.8 62.5l6.5-7.2M193.3 97.3l6.7 7.1M93.3 64.5l6.7-7.1M66.7 92.1l6.6-7.1M73.7 70.4l6.3-7.4M386.7 42.7l6.6 7M266.7 6.2l6.6 7M386.7 100.4l6.6-7M373.3 109.7l6.7-7M60 99.1l6.7-7M326.7 30.2l6.6 7M60 100.2l6.7-6.9M386.7 98.5l6.6-7M333.3 30.1l6.7 7M13.9 109l6.1-7.3M213.3 55.2v9.5M40 101.4l6.7-6.8M220 26.3v9.5M13.3 108.3l6.7-6.8M93.3 58.3l6.7-6.8M466.7 50.5l6.6 6.7M6.7 116.1l6.6-6.7M20 101.7l6.7-6.7M380 102.7l6.7-6.7M480 84.3l6.7-6.7M380 107.1l6.7-6.7M200 91.9l6.7 6.7M373.3 111.5l6.7-6.7M353.3 79l6.7 6.7M273.3 69.6l6.7-6.6M6.7 134.9l6.6-6.6M0 132.7l6.7-6.6M206.7 56v9.3M253.3 85.4l6.7-6.5M93.3 54.7l6.7-6.5M20 118.9l6.7-6.6M393.3 41.1l6.7 6.6M20 128.8l6.7-6.5M386.7 46.1l6.6 6.6M120 38l6.7-6.5M460 49.7l6.7 6.5M206.7 27.6v9.3M0 135.4l6.7-6.5M40 84.9l6.7-6.5M86.7 58.3l6.6-6.4M126.7 85.9v9.3M80 70.8l6.7-6.4M6.7 126.1l6.6-6.4M273.3 9.7l6.7 6.4M380 104.8l6.7-6.3M373.3 99.7l6.7-6.4M260 66.6v9.2M113.3 41l6.7-6.3M13.3 135.2l6.7-6.4M100 52.2l6.7-6.3M380 36.3l6.7 6.4M206.7 85.4l6.6 6.4M373.3 113.4l6.7-6.3M200 95.3v9.1M73.3 66.1l6.7-6.3M466.7 52.6l6.6 6.3M66.7 73.9l6.6-6.3M193.3 97.3v9.2M400 41.9l6.7 6.2M120 41.4l6.7-6.2M20 131.7l6.7-6.2M40 117.4l6.7-6.2M93.3 61l6.7-6.3M40 105l6.7-6.2M413.3 63.6l6.7 6.2M426.7 65.6l6.6 6.2M80 68.8l6.7-6.2M493.3 71.5l6.7-6.1M413.3 66.4l6.7 6.1M40 123.8l6.7-6.1M346.7 45.1l6.6 6.1M386.7 102.8l6.6-6.1M320 36.8v9M373.3 101.7l6-6.7M486.7 77.6l6.6-6.1M406.7 91.9l6.6 6.1M366.7 119.5l6.6-6.1M26.7 119.5l6.6-6M366.7 121.6l6.6-6M493.3 77.8l6.7-6M6.7 132.4l6.6-6M253.3 63.8v8.9M493.3 74.4l6.7-6M366.7 117.5l6.6-6M80 51.4l6.7-6M486.7 80.3l6.6-5.9M0 119.9l6.7-5.9M360 43.1l6.7 5.9M80 58.8l6.7-5.8M73.3 103.2l6.7-5.8M366.7 109.3l6.6-5.8M0 101l6.7-5.8M346.7 53.9l6.6 5.8M360 125.3l6.7-5.8M93.3 51.9l6.7-5.8M73.3 70.7l6.7-5.8M386.7 96l6.6-5.8M366.7 115.5l6.6-5.8M400 59.7l6.7 5.8M66.7 71.9l6.6-5.8M26.7 116.3l6.6-5.8M480 86.8l6.7-5.7M393.3 44.5l6.7 5.7M6.7 114l6.6-5.7M360 127.4l6.7-5.8M260 66.6l6.7-5.7M20 138.7l6.7-5.7M360 123.1l6.7-5.6M26.7 107.6l6.6-5.7M180 57.9l6.7 5.7M120.9 34l5.8-6.6M366.7 113.8l6.6-5.6M313.3 41.1l6.7 5.7M373.3 115.6l6.7-5.6M486.7 60.9l6.6-5.6M73.3 107.2l6.7-5.6M60 83.9l6.7-5.6M366.7 111.8l6.6-5.6M446.7 102.8l6.6 5.6M326.7 41.2l6.6 5.6M493.3 86.5l6.7-5.6M40 77.6l6.7-5.6M20 114.2l6.7-5.6M333.3 28.9l6.7-5.5M373.3 59.1l6.7 5.5M360 121l6.7-5.5M73.3 82l6.7-5.6M393.3 49.7l6.7 5.6M20 111.1l6.7-5.6M73.3 85l6.7-5.5M493.3 59.1l6.7-5.6M353.3 73.5l6.7 5.5M360 37.1l6.7-5.5M13.3 119.7l6.7-5.5M6.7 124.2l6.6-5.5M393.3 48.2l6.7 5.5M20 140.3l6.7-5.5M373.3 98.7l6.7-5.5M40 98.4l6.7-5.4M40 75.3l6.7-5.4M273.3 61v8.6M33.3 110.5l6.7-5.5M33.3 111.8l6.7-5.5M366.7 51.6l6.6 5.4M26.7 120.7l6.6-5.4M100 54.7l6.7-5.4M366.7 62.7l6.6 5.4M486.7 84l6.6-5.4M33.3 101.9l6.7-5.4M33.3 113.5l6.7-5.4M20 100.2l6.7-5.4M413.3 61.5l6.7 5.4M346.7 38.3l6.6 5.3M20 137.2l6.7-5.3M106.7 30.7l6.6-5.4M53.3 106.2l6.7-5.3M380 44.8l6.7 5.4M260 78.5l6.7-5.3M46.7 117.7l6.6-5.3M13.3 137l6.7-5.3M393.3 57l6.7 5.3M360 114.7l6.7-5.4M60 91.5l6.7-5.4M53.3 109.2l6.7-5.3M46.7 91.5l6.6-5.3M366.7 123.4l-6.7 5.3M373.3 118.1l-6.6 5.3M306.7 42.8l6.6 5.3M406.7 56.2l6.6 5.3M333.9 30.4l6.1-5.8M40 106.3l6.7-5.2M6.7 128.9l6.6-5.3M186.7 63.6l6.6 5.3M40 108.1l6.7-5.3M0 84.3l6.7-5.2M33.3 122.6l6.7-5.2M360 73.7l6.7 5.3M40 110.7l6.7-5.2M0 145.1l6.7-5.2M.3 86.8l6.4-5.6M360 79l6.7 5.2M366.7 107.7l6.6-5.2M113.3 43.2l6.7-5.2M66.7 116.8l-6.7 5.2M193.3 83.4l6.7 5.2M6.7 143.5l6.6-5.2M66.7 78.3l6.6-5.2M346.7 36.2l6.6 5.2M386.7 65.8l6.6 5.2M426.7 67.9l6.6 5.1M48.4 97.1l4.9-6.9M60 93.7l6.7-5.2M206.7 79.6l6.6 5.2M340 39.1l6.7 5.1M360 119l6.7-5.2M206.7 8.5v8.4M40 113.4l6.7-5.1M33.3 107.9l6.7-5.1M133.3 89.1v8.4M360 37.9l6.7-5.1M86.7 66.1l6.6-5.1M46.7 114.3l6.6-5.1M73.3 47.7l6.7-5.1M86.7 55.3l6.6-5.1M453.3 59.9l6.7 5.1M360 116.9l6.7-5.1M46.7 98.8l6.6-5.1M73.3 88.4l6.7-5.1M206.7 81.8l6.6 5.1M73.3 109.4l6.7-5.1M73.3 63.9l6.7-5.1M300 76.8v8.4M113.3 36.8l6.7-5M273.3 2.9l6.7 5M180 60.3l6.7 5.1M493.3 90l6.7-5M393.3 54.6l6.7 5.1M480 94.4l6.7-5M86.7 59.7l6.6-5M66.7 49.5l6.6-5M14.4 118.8l5.6-6.2M86.7 53l6.6-5M340 27.4l6.7-5M26.7 135.8l-6.7 4.9M206.7 78.7l6.6 5M46.7 101.1l6.6-5M33.3 118.4l6.7-5M13.3 143.8l-6.6 5M20 135.5l6.7-5M400 56.6l6.7 4.9M86.7 60.8l6.4-5.3M33.3 103.3l6.7-4.9M46.7 111.2l6.6-5M93.3 37.7l6.7-5M460 47.7l6.7 4.9M433.3 56.6l6.7 4.9M353.3 27.8l6.7-4.9M186.7 74.9l6.6 4.9M33.3 101.4l6.7-4.9M360 74.8l6.7 4.9M126.7 29.5l6.6-4.9M40 87.6l6.7-4.9M320 62.6l6.7 4.9M406.7 65.5l6.6 4.9M80 55.8l6.7-4.9M66.7 93.3l6.6-4.9M13.3 80.6l6.7-4.8M406.7 61.5l6.6 4.9M80 70.9l6.7-4.8M26.7 116.6l6.6-4.8M313.3 28.8l6.7 4.8M386.7 56.3l6.6 4.9M33.3 106.2l6.7-4.8M393.3 43.8l6.7 4.9M86.7 64.4l6.6-4.8M40 91.5l6.7-4.8M87.7 72.2l5.6-5.9M66.7 66.3l6.6-4.8M200 73.6l6.7 4.8M13.3 132.9l6.7-4.8M20 73.4l6.7-4.8M60 103.9l6.7-4.8M380 66.2l6.7 4.8M246.7 48v8.2M340 37.1l6.7 4.8M380 41.4l6.7 4.7M326.7 37.9l6.6 4.7M26.7 70.5l6.6-4.8M66.7 83.9l6.6-4.8M340 29.9l6.7-4.8M366.7 60.9l6.6 4.8M40 96.5l6.7-4.7M353.3 34.3l6.7-4.7M0 150l6.6-4.8M453.3 96.3l6.7-4.7M41.1 83.8l5.6-5.9M353.3 29.4l6.7-4.8M406.7 58.9l6.6 4.7M6.7 90l6.6-4.7M86.7 69.2l6.6-4.7M240 50.1v8.1M46.7 108.3l6.6-4.8M0 141.9l6.7-4.8M0 84.8l6.7-4.7M6.7 108.7l6.6-4.7M346.7 35.2l6.6-4.7M86.7 56.4l6.6-4.7M386.7 92.9l6.6-4.7M20 70.8l6.7-4.7M60 88.6l6.7-4.7M440 61.5l6.7 4.7M360 112.4l6.7-4.7M413.3 59.7l6.7 4.7M440 47.1l6.7 4.7M193.3 68.9l6.7 4.7M206.7 78.4l6.6 4.6M186.7 20.1v8.1M26.7 73.1l6.6-4.7M33.3 91l6.1-5.5M373.3 79.3l6.7 4.7M380 113.5l-6.7 4.6M26.7 108l6.6-4.7M13.3 75.5l6.7-4.7M253.3 87.3l6.7-4.7M213.3 55.2l6.7 4.6M0 149l6.7-4.6M13.3 128.3l6.7-4.7M100.5 61.2l6.2-5.3M186.7 65.4l6.6 4.6M480 88.6l6.7-4.6M353.3 132.9l-6.6 4.7M60 57.3l6.7-4.6M433.3 48.3l6.7 4.7M313.3 45.2l6.7 4.6M46.7 68l6.6-4.6M200 74.1l6.7 4.6M213.3 86.9l6.7 4.6M13.3 75.3l6.7-4.6M346.7 44.2l6.6 4.6M93.7 55l6.3-5.1M353.3 32.6l6.7-4.6M333.3 142.6l6.7-4.6M353.3 32.2l6.7-4.6M66.7 68.5l6.6-4.6M346.7 65.7l6.6 4.5M33.3 115.3l6.7-4.6M0 112.9l6.7-4.6M406.7 55.1l6.6 4.6M120 31.8l6.7-4.6M380 68.6l6.7 4.5M33.3 92.1l6.7-4.5M33.3 128.4l6.7-4.6M400 50.2l6.7 4.6M460 60l6.7 4.5M340 40.5l6.7 4.6M20 112.6l6.7-4.6M46.7 120.6l6.6-4.6M360 54.1l6.7 4.6M26.7 68.6l6.6-4.5M13.3 130.7l6.7-4.5M406.7 66.8l6.6 4.5M420 91.8l6.7 4.5M180 44.8v8.1M13.3 126.4l6.7-4.5M360.4 27.4l6.3-5M200 75.1l6.7 4.5M40 102.8l6.7-4.5M6.7 91.9l6.6-4.5M60 70.8l6.7-4.5M400 62.3l6.7 4.5M73.3 70.8l6.7-4.5M80 59.8l6.7-4.5M53.3 112.4l6.7-4.5M0 96.3l6.7-4.4M26.7 112.3l6.6-4.4M386.7 50.2l6.6 4.4M46.7 63l6.6-4.5M360 63.8l6.7 4.5M60 117.2l6.7-4.4M466.7 90.6l6.6-4.4M440 105.5l-6.7-4.5M420 69.8l6.7 4.4M406.7 80.3l6.6 4.4M73.3 92.1l6.7-4.4M6.7 126.2l6.6-4.4M340 53.2v8M246.7 68.2l6.6-4.4M386.7 62.6l6.6 4.4M206.7 78.4l6.6 4.4M366.7 106.1l6.6-4.4M393.3 62.9l6.7 4.4M60 100.9l6.7-4.4M53.3 63.4l6.7-4.4M66.7 96.5l6.6-4.4M13.3 83.1l6.7-4.4M180 63.4l6.7 4.3M53.3 123.7l6.7-4.4M206.7 77.8l6.6 4.4M473.3 91.2l6.7-4.4M33.3 88.6l6.7-4.3M366.7 58.7l6.6 4.3M73.3 46l6.7-4.3M86.7 62.6l6.6-4.3M100 31.9l6.7-4.3M387.5 39l5.8 5.5M0 87l6.7-4.3M420 66.9l6.7 4.3M353.3 123.3l6.7-4.3M413.3 48.9l6.7 4.3M266.7 54.4l6.6 4.3M260 78.9l6.7-4.4M426.7 63.2l6.6 4.4M373.3 76.5l6.7 4.3M66.7 86.1l6.6-4.3M466.7 56.2l6.6 4.3M100 57.4l6.7-4.3M200 104.4l6.7 4.3M93.3 55.3l6.7-4.3M353.3 121.2l6.7-4.3M400 65l6.7 4.2M313.3 70.2l6.7 4.3M186.7 79.1l6.6 4.3M473.3 63.1l6.7 4.2M493.3 55.3l6.7-4.3M293.3 82.8v8M493.3 78.6v7.9M373.3 30.1l6.7 4.3M33.3 65.7l6.7-4.3M40 124.8l6.7-4.2M493.3 92.7l6.7-4.2M380 71.8l6.7 4.3M340 49.7l6.7 4.2M13.3 101.7l6.7-4.2M93.3 41.7l6.7-4.2M360 128.7l-6.7 4.2M473.3 88.5l6.7-4.2M6.7 80.1l6.6-4.2M340 34.1l6.7 4.2M453.3 100.3l6.7-4.1M413.3 50.9l6.7 4.2M460 65l6.7 4.2M406.7 96.4l-6.7 4.2M353.3 45.6l6.7 4.2M493.3 60.5l6.7-4.2M86.7 72.9l6.6-4.2M426.7 92.5l6.6 4.1M426.7 61.1l6.6 4.2M426.7 40.1l6.6 4.1M213.3 91.8l6.7 4.1M420 61.5l6.7 4.1M46.7 105.5l6.6-4.2M300 37.5l6.7 4.1M460 95.8l6.7-4.1M33.3 82.8l6.7-4.1M0 116.7l6.7-4.2M406.7 69.2l6.6 4.2M26.7 105.5l6.6-4.1M80 64.9l6.7-4.1M460 56.4l6.7 4.1M13.3 109.3l6.7-4.1M100.5 32.6l6.2-4.8M266.7 1.9l6.6 4.1M193.3 70l6.7 4.1M100 37.5l6.7-4.1M313.3 65.4l6.7 4.1M366.7 103.8l6.6-4.1M0 139l6.7-4.1M200 77.7l6.7 4.1M353.3 38.6l6.7-4.1M60 119.3l6.7-4M353.3 125.1l6.7-4.1M480 105l6.7 4.1M86.7 39.1l6.6-4.1M433.3 85l6.7 4.1M0 97.4l6.7-4.1M386.7 29.5l6.6 4M166.7 22.5v7.8M353.3 127.2l6.7-4.1M253.3 82.6l6.7-4.1M120 34.7l6.7-4.1M200 81.4l6.7 4M133.3 23.7l6.7-4.1M340 61.6l6.7 4.1M320 26.2l6.7 4M6.7 135.1l6.6-4M180 19.3v7.8M353.3 129.3l6.7-4M426.7 92.7l6.6 4M346.7 67.4l6.6 4M353.3 84.8l6.7 4M346.7 131.2l6.6-4M353.3 131.4l6.7-4M433.3 97.8l6.7 4M53.3 90.2l6.7-4M433.3 52.3l6.7 4M420 88.5l6.7 4M353.3 48.8l6.7 4M373.3 37.4l6.7 4M200 88.6l6.7 4M186.7 67.7l6.6 4M20 82l6.7-3.9M373.3 31.5l6.7 4M6.7 105.7l6.6-4M213.3 95.9l6.7 3.9M101.4 31l5.3-5.7M26.7 130.5l6.6-4M0 81.8l6.7-4M406.7 70.6l6.6 3.9M80 83.3l6.7-4M320 49.8l6.7 3.9M400 51.1l6.7 4M320 46.8l6.7 3.9M53.3 66.4l6.7-3.9M360 110.1l6.7-4M453.3 56.1l6.7 3.9M33.3 128.7l6.7-3.9M433.3 67.6l6.7 3.9M20 90.4l6.7-3.9M426.7 75.3l6.6 3.9M246.7 65.3l6.6-3.9M340 137.1l6.7-3.9M80 79.5l6.7-3.9M433.3 99l6.7 3.9M46.7 123.2l6.6-3.9M346.7 129l6.6-3.9M393.3 52.7l6.7 3.9M200 124l6.7 3.9M180 67.2l6.7 3.9M346.7 133.2l6.6-3.9M133.3 22.6l6.7-3.9M26.7 122.3l6.6-3.9M380 49.7l6.7 3.9M373.3 71.3l6.7 3.9M226.7 97.8l6.6 3.9M386.7 89.8l6.6-3.9M273.3 57.2l6.7-3.8M33.3 68.4l6.7-3.9M206.7 77.2l6.6 3.9M13.3 104l6.7-3.8M420 57.3l6.7 3.8M420 88.9l6.7 3.8M206.7 98.6l6.6 3.8M413.3 93.1l6.7 3.8M173.3 49l6.7 3.9M140 40.8l6.7 3.8M353.3 118.5l6.7-3.8M373.3 53.3l6.7 3.8M206.7 132.5l-6.7-3.8M413.3 55.9l6.7 3.9M266.7 53.7l6.6-3.8M313.3 48.1l6.7 3.8M426.7 93.1l6.6 3.8M48.1 97.8l5.2-5.6M186.7 84.3l6.6 3.8M413.3 71.3l6.7 3.8M493.3 57.2l6.7-3.8M493.3 94.2l6.7-3.8M246.7 84.2l6.6-3.8M193.3 88.1l6.7 3.8M206.7 127.9l6.6 3.8M240 69.1l6.7-3.8M66.7 49.8l6.6-3.8M86.7 79.3l6.6-3.7M426.7 71.2l6.6 3.8M393.3 61.2l6.7 3.8M486.7 93.8l6.6-3.8M246.7 1.5v7.7M366.7 70.4l6.6 3.8M393.3 67l6.7 3.8M160 37.1l6.7 3.8M346.7 41.9l6.6 3.7M106.7 33.4l6.6-3.8M433.3 97l6.7 3.7M493.3 61.3l6.7-3.8M326.7 30.2v7.7M273.3 13.9l6.7 3.7M453.3 43.9l6.7 3.8M6.7 81.2l6.6-3.7M360 27.6l6.7-3.7M366.7 75.6l6.6 3.7M360 24.6l6.7-3.7M140 89.2v7.6M213.3 102.4l6.7 3.8M373.3 68.1l6.7 3.7M140 20.7l6.7-3.7M433.3 83.5l6.7 3.7M73.3 95.7l6.7-3.7M13.3 77.5l6.7-3.7M426.7 58.5l6.6 3.8M14.5 142.6l5.5-5.4M440 64.8l6.7 3.7M46.7 77.9l6.6-3.7M353.3 66.3l6.7 3.8M206.7 124l6.6 3.7M440 41.3l6.7 3.7M346.7 33.1l6.6-3.7M186.7 102.8l6.6 3.7M40 126.9l6.7-3.7M33.3 64.1l6.7-3.7M360 71.9l6.7 3.7M80 87.7l6.7-3.7M6.7 86.8l6.6-3.7M413.3 100.1l-6.6-3.7M73.3 79.1l6.7-3.7M26.7 86.5l6.6-3.7M33.3 87l6.7-3.6M186.7 71.1l6.6 3.7M346.7 127l6.6-3.7M13.3 123.6l6.7-3.6M86.7 75.6l6.6-3.7M353.3 35.3l6.7-3.6M460 113.3l-6.7-3.7M393.3 47.5l6.7 3.6M293.3 75.2v7.6M386.7 86.9l6.6-3.8M400 55.3l6.7 3.6M80 72.9l6.7-3.7M406.7 72.6l6.6 3.7M353.3 63.5l6.7 3.6M433.3 80l6.7 3.6M320 45.8l6.7 3.6M386.7 109.8l-6.7 3.7M46.7 102.8l6.6-3.6M313.3 25.2l6.7 3.7M466.7 95.6l6.6-3.6M173.3 108.4l6.7 3.6M260 8l6.7 3.6M340 134.8l6.7-3.6M353.3 89.7l6.7 3.6M93.3 34.8l6.7-3.6M0 139.4l6.7-3.6M66.7 115.3l6.6-3.6M6.7 79.1l6.6-3.6M400 72.3l6.7 3.6M286.7 51.9l6.6-3.6M373.3 57l6.7 3.6M53.3 92.2l6.7-3.6M466.7 64.5l6.6 3.6M60 72.1l6.7-3.6M80 92l6.7-3.6M460 96.2l6.7-3.6M286.7 54.3l6.6-3.6M93.3 97.4l6.7-3.6M400 39.4l6.7 3.5M326.7 53.7l6.6 3.6M440 67.6l6.7 3.6M80 76.4l6.7-3.5M366.7 72.9l6.6 3.6M60 122l-6.7 3.6M306.7 41.6l6.6 3.6M26.7 75.4l6.6-3.6M133.3 24.3l6.7-3.6M66.7 52.7l6.6-3.6M273.3 55.3l6.7-3.6M86.7 84l6.6-3.6M420 89.5l6.7 3.6M280 58.7l6.7-3.5M100 61.5l6.7-3.6M373.3 46.1l6.7 3.6M200 14.1v7.5M126.7 27.2l6.6-3.5M73.3 95.7v7.5M360 107.3l6.7-3.5M306.7 47l6.6 3.5M226.7 93.4l6.6 3.5M473.3 54.9l6.7 3.5M420 64.4l6.7 3.5M360 46.4l6.7 3.5M400 76.8l6.7 3.5M213.3 84.8l6.7 3.5M0 135.9l6.7-3.5M33.3 126.5l6.7-3.5M413.3 53.8l6.7 3.5M280 51.7l6.7-3.5M386.7 86.9l6.6-3.5M433.3 80.4l6.7 3.5M420 90.3l6.7 3.5M40 78.7l6.7-3.5M253.3 48.4v7.5M373.3 49.6l6.7 3.5M366.7 79.7l6.6 3.5M406.7 42.9l6.6 3.5M420 59.8l6.7 3.4M353.3 70.2l6.7 3.5M313.3 125.9l6.7-3.5M240 67.3l6.7-3.5M153.3 71.6l6.7 3.4M33.3 130.4l6.7-3.5M46.7 69.9l6.6-3.5M433.3 79.2l6.7 3.5M226.7 102.3l6.6 3.5M380 80.8l6.7 3.5M420 55.1l6.7 3.4M220 52.3v7.5M193.3 106.5l6.7 3.4M60 53.6l6.7-3.4M373.3 83.2l6.7 3.4M300 51.9l6.7 3.5M86.7 88.4l6.6-3.5M193.3 37.6l6.7 3.4M326.7 45.9l6.6 3.5M80 45.7l6.7-3.4M433.3 96.9l6.7 3.4M66.7 99.1l6.6-3.4M46.7 72l6.6-3.4M406.7 54.8l6.6 3.4M393.3 93.4l6.7-3.4M180 71.5l6.7 3.4M340 138l6.7-3.4M6.7 77l6.6-3.4M60 77.3l6.7-3.4M386.7 53.6l6.6 3.4M53.3 80.7l6.7-3.4M420 75.1l6.7 3.4M73.3 61.5l6.7-3.4M360 40l6.7 3.4M6.7 117.8l6.6-3.4M446.7 101l6.6-3.4M340 30.8l6.7-3.3M473.3 92l6.7-3.4M66.7 112.8l6.6-3.4M246.7 81.3l6.6-3.4M446.7 104.1l5.4 5.2M86.7 94.4l6.6-3.4M473.3 119.1l-6.6-3.4M193.3 71.7l6.7 3.4M360 57.5l6.7 3.4M13.3 114.4l6.7-3.3M126.7 30.6l6.6-3.3M420 73.7l6.7 3.4M46.7 78.4l6.6-3.4M366.7 49.9l6.6 3.4M313.3 33.4l6.7 3.4M380 34.4l6.7 3.3M73.3 49.1l6.7-3.4M313.3 76.1l6.7 3.4M353.3 71.4l6.7 3.4M280 13.7l4.1 6.3M413.3 85.1l6.7 3.4M340 61.2l6.7 3.3M240 71.5l6.7-3.3M226.7 122.2l6.6 3.3M73.3 72.1l6.7-3.3M20 78.7l6.7-3.3M440 94.3l6.7 3.3M333.3 37.2l6.7 3.3M413.3 70.4l6.7 3.3M213.3 10.6v7.4M53.3 103.5l6.7-3.3M133.3 27.3l6.7-3.4M433.3 96.7l6.7 3.4M366.7 102l6.6-3.3M433.3 96.6l6.7 3.3M346.7 27.5l6.6-3.4M346.7 25.1l6.6-3.3M20 73.8l6.7-3.3M473.3 57.2l6.7 3.3M406.7 76.7l6.6 3.3M486.7 96l6.6-3.3M453.3 97.3l6.7-3.3M206.7 92.6l6.6 3.3M493.3 78.6l6.7-3.3M486.7 81.1l6.6-3.3M140 19.6l6.7-3.2M426.7 80.2l6.6 3.3M26.7 90.3l6.6-3.3M400 67.3l6.7 3.3M193.3 92l6.7 3.3M326.7 50.7l6.6 3.3M246.7 77.3l6.6-3.2M360 67.1l6.7 3.3M326.7 27.4l6.6 3.3M420 76.3l6.7 3.2M40 128.6l6.7-3.2M393.3 96.7l6.7-3.3M0 146.7l6.7-3.2M426.7 74.2l6.6 3.3M366.7 38.6l6.6 3.3M393.3 90.2l6.7-3.3M153.3 76.9l6.7 3.2M346.7 134.6l6.6-3.2M413.3 58.2l6.7 3.3M293.3 112.3l6.7 3.2M380 53.1l6.7 3.2M26.7 95.9l6.6-3.2M80 63l6.7-3.3M260 75.8l6.7-3.2M473.3 60.5l6.7 3.2M13.3 85.3l6.7-3.3M80 66.3l6.5-3.5M360 52.8l6.7 3.2M33.3 109.6l6.2-4.1M213.3 83.7l6.7 3.2M386.7 59.7l6.6 3.2M80 75.4l6.7-3.2M46.7 57.7l6.6-3.2M226.7 26.5v7.4M233.3 79.4l6.7-3.2M426.7 40.1v7.4M346.7 124.4l6.6-3.2M0 93.2l6.7-3.2M373.3 74.2l6.7 3.2M126.7 85.9l6.6 3.2M126.7 35.2l6.6-3.2M160 75l6.7 3.2M473.3 86.2l6.7-3.2M380 77.4l6.7 3.1M240 125.6l6.7 3.2M213.3 106.4l6.7 3.1M26.7 131.9l6.6-3.2M413.3 42.5l6.7 3.2M13.3 143.4l6.7-3.1M347.5 36.7l5.8-4.5M60 86.2l6.7-3.1M426.7 93.8l6.6 3.2M0 127.3l6.7-3.1M133.3 24.6l6.7-3.2M373.3 63l6.7 3.2M200 43.2l6.7 3.1M320 74.5l6.7 3.1M433.3 73l6.7 3.2M60 52.9l6.7-3.1M400 73.6l6.7 3.1M340 132.1l6.7-3.1M320 51.9l6.7 3.2M320 69.5l6.7 3.1M126.7 27.4l6.6-3.1M60 112.9l6.7-3.1M46.7 127l-6.7 3.1M440 76.2l6.7 3.1M453.3 108.4l6.7 3.1M480 58.4l6.7 3.2M53.3 116l6.7-3.1M413.3 85.8l6.7 3.1M33.3 131.7l6.7-3.1M173.3 54.8l6.7 3.1M320 52.6l6.7 3.1M220 116.5l6.7 3.1M200 62.2l6.7 3.1M180 112l6.7 3.1M320 57.7l6.7 3.1M193.3 111.7l6.7 3M286.7 47.2l6.6-3.1M400 27.6l6.7 3.1M366.7 68.3l6.6 3M46.7 75.2l6.6-3.1M86.7 50.9l6.6-3.1M26.7 134.8l6.6-3.1M140 18.7l6.7-3.1M353.3 68.8l6.7 3.1M340 139.7l-6.7 3M40 94.6l6.7-3.1M206.7 119.6l6.6 3.1M193.3 121.7v7.4M166.7 51.4l6.6 3.1M120 23.9l6.7-3M453.3 53.3l6.7 3.1M20 140.7l-6.7 3.1M246.7 38.4l6.6-3.1M266.7 72.6l6.6-3M366.7 56l6.6 3.1M446.7 45l6.6 3M453.3 101.5l6.7-3M373.3 33.3l6.7 3M460 101.9l6.7-3.1M466.7 91.7l6.6-3.2M160 80.1l6.7 3M440 73.9l6.7 3M140 21.4l6.7-3M433.3 94.2l6.7 3M240 64.4l6.7-3.1M273.3 71.9l6.7-3M206.7 76.6l6.6 3M200 51.3v7.3M100 48.2l6.7-3M433.3 100.4l6.7 3M433.3 75l6.7 3M273.3 52.4l6.7-3M340 64.4l6.7 3M146.7 91.9l6.6 3M80 97.4l6.7-3M293.3 52.2v7.3M446.7 85.7l6.6 3M20 84.8l6.7-3M140 116.1l-6.7-3M206.7 116.6l6.6 2.9M280 57.3l6.7-3M346.7 30.8l6.6-3M300 32.4l6.7 3M353.3 51.2l6.7 2.9M40 61.4l6.7-2.9M173.3 53.4l6.7 3M146.7 85.6l6.6 3M93.3 66.3l6.7-3M26.7 91.6l6.6-3M406.7 53l6.6 2.9M146.7 91.9v7.3M6.7 135.8l6.6-2.9M373.3 41.9l6.7 2.9M286.7 55.2l6.6-3M393.3 26.2v7.3M253.3 89.3l6.7-3M180 76.2l6.7 2.9M386.7 22.5l6.6 2.9M246.7 19v7.3M126.7 52.4l6.6-2.9M486.7 89.4l6.6-2.9M193.3 74.8l6.7 2.9M40 130.1l-6.7 2.9M306.7 84.2v7.3M273.3 74.3v7.2M213.3 83l6.7 3M400 28.5l6.7 2.9M313.3 81.2l6.7 2.9M446.7 58.9v7.3M73.3 44.5l6.7-2.9M353.7 30.3l6.3-3.7M466.7 98.8l6.6-2.9M413.3 74.5l6.7 2.9M353.3 115.3l6.7-2.9M366.7 79l6.6 2.8M126.7 25.5l6.6-2.9M373.3 65.7l6.7 2.9M413.3 73.4l6.7 2.9M13.3 121.8l6.7-2.9M326.7 141.5l6.6-2.9M360 70.1l6.7 2.8M140 23.9l6.7-2.8M86.7 100.3l6.6-2.9M253.3 55.9l6.7-2.9M180 16.3l6.7-2.8M460 98.5l6.7-2.9M186.7 11.4l6.6-2.9M460 105l6.4 3.4M93.3 109.5l-6.6 2.8M280 80v7.2M333.3 46.8l6.7 2.9M433.3 44.2l6.7 2.9M6.7 139.9l6.6-2.9M226.7 127l6.6 2.9M180 18.7l6.7-2.9M93.3 48l6.7-2.9M200 14.1l6.7 2.8M26.7 125.5l6.6-2.9M460 104.2l6.7 2.9M446.7 41.1l6.6 2.8M66.7 74.9l6.6-2.8M26.7 95l6.6-2.9M33.3 80.4l6.7-2.8M6.7 144.4l6.6-2.9M146.7 44.6l6.6 2.8M440 71.5l6.7 2.8M73.3 73.8l6.7-2.9M306.7 38.3l6.6 2.8M226.7 138.4l-6.7-2.8M420 72.5l6.7 2.8M220 88.3l6.7 2.8M473.3 58.9l6.7 2.8M220 113l6.7 2.8M13.3 138.3l6.7-2.8M440 78l6.7 2.8M406.7 39.7l6.6 2.8M240 19.2v7.2M106.7 39.6l6.6-2.8M186.7 45.7v7.2M6.7 146.2l6.6-2.8M320 79.5l6.7 2.8M353.3 43.6l6.7 2.8M46.7 58.5l6.6-2.8M60 59l6.7-2.8M73.3 75.6l6.7-2.7M80 42.6l6.7-2.8M473.3 70.1l6.7 2.7M406.7 51l6.6 2.8M180 106.2l6.7 2.7M453.3 66.3l6.7 2.8M366.7 22.4l6.6-2.8M286.7 88l6.6 2.8M360 104.7l6.7-2.7M313.3 85.5l6.7 2.8M33.3 133l-6.6 2.8M393.3 77.5l6.7 2.8M426.7 36.4l6.6 2.7M313.3 48.7l6.2 3.7M113.3 29.6l6.7-2.7M106.7 44l6.6-2.9M193.3 20.3v7.2M180 116.1l6.7 2.7M60 62.5l6.7-2.7M60 84.2l6.7-2.8M460 112.8l6.7 2.7M406.7 90.3l6.6 2.8M366.7 43.4l6.6 2.7M433.3 87.2l6.7 2.7M153.3 82.5l6.7 2.7M80.8 62.6l5.9-4.3M420 80.4l6.7 2.7M186.7 108.9l6.6 2.8M113.3 29.6v7.2M253.3 40.4l6.7-2.7M53.3 99.2l6.7-2.7M480 96.5l6.7-2.7M300 35.6l6.7 2.7M140 26.5l6.7-2.7M380 75.2l6.7 2.7M393.3 91.5l6.7-2.7M220 86.9l6.7 2.7M40 60.4l6.7-2.7M213.3 110.3l6.7 2.7M446.7 71.2l6.6 2.7M200 81.4v7.2M373.3 85.5l6.7 2.6M226.7 54.4l6.6-2.7M286.7 80.8v7.2M400 93.4v7.2M133.3 111l6.7 2.7M140 89.2l6.7 2.7M166.7 22.5l6.6 2.7M126.7 31.5l6.6-2.7M0 79.6l6.7-2.6M346.7 121.2l6.6-2.7M226.7 91.1l6.6 2.6M440 79.3l6.7 2.7M393.3 88.2l6.7-2.7M106.7 27.8l6.6-2.7M20 75.8l6.7-2.7M200 58.6l6.7-2.6M293.3 28.6l6.7 2.6M193.3 10.7l6.7-2.6M26.7 133l6.6-2.6M73.3 54l6.7-2.6M33.3 97.2l6.7-2.6M286.7 22.2l6.6 2.6M340 44.9l6.7 2.6M253.3 80.4l6.7-2.6M360 39.8l6.7-2.7M120 102.5l6.7 2.6M53.3 86.8l6.7-2.6M306.7 73.5l6.6 2.6M353.3 61.2l6.7 2.6M13.3 131.1l6.6-2.9M300 40.2l6.7 2.6M113.3 90.1l6.7 2.6M160 85.2l6.7 2.6M440 56.3l6.7 2.6M26.7 99.8l6.6-2.6M80 41.7l6.7-2.6M286.7 48.2l6.6-2.6M320 84.1l6.7 2.6M466.7 74.4l6.6 2.6M466.7 60.5l6.6 2.6M440 84.6l6.7 2.6M6.7 77.8l6.6-2.5M433.3 62.3l6.7 2.5M66.7 109.8l6.6-2.6M0 89.4l6.7-2.6M206.7 85.4v7.2M13.3 87.4l6.7-2.6M126.7 38.9l6.6-2.6M306.7 55.4l6.6 2.6M380 57.1l6.7 2.6M420 77.4l6.6 2.8M473.3 107.5l6.7-2.5M446.7 98.8l6.6-2.5M400 53.7l6.7 2.5M306.7 46.2l6.6 2.5M133.3 42.9l6.7 2.5M200 109.9l6.7 2.6M373.3 30.1l6.7 2.5M353.3 55l6.7 2.5M220 99.8l6.7 2.5M487 97.5l6.3-3.3M300 71l6.7 2.5M126.7 37.7l6.6-2.5M460 69.1l6.7 2.5M226.7 61.5l6.6 2.5M346.7 71l6.6 2.5M120 92.7l6.7 2.5M420 97.6l-6.7 2.5M66.7 105.7l6.6-2.5M480 98.5l6.7-2.5M120 24.2l6.7-2.5M406.7 75.9l6.6 2.5M240 89.5l6.7-2.5M113.3 95.4l6.7 2.5M460 111.5l6.7 2.5M320 88.3l6.7 2.5M400 37.2l6.7 2.5M440 103.4l6.7 2.5M446.7 74.3l6.6 2.5M446.7 76.9l6.6 2.5M426.7 84.7l6.6 2.5M446.7 86.4l6.6 2.4M306.7 67.7l6.6 2.5M13.3 75.9l6.7-2.5M266.7 74.5v7.1M446.7 82l6.6 2.5M60 74.3l6.7-2.4M66.7 50.2l6.6-2.5M320 55.4l6.7 2.5M193.3 119.3l6.7 2.4M53.3 96.1l6.7-2.4M33.3 71.8l6.7-2.4M440 83.9l6.7 2.5M446.7 98l6.6-2.5M300 136.7l6.7 2.4M446.7 99.7l6.6-2.4M213.3 18l6.7-2.4M93.3 44.2l6.7-2.4M466.7 115.7l-6.7-2.4M346.7 61.1l6.6 2.4M420 82.3l6.7 2.4M53.3 86.3l6.7-2.4M220 128.8l6.7 2.4M386.7 37l6.6 2.4M60 51.9l6.7-2.4M126.7 100.1l6.6 2.4M273.3 90.2l6.7 2.4M140 29.7l6.7-2.4M446.7 80.8l6.6 2.4M106.7 73.8l6.6 2.4M200 8.1l6.7-2.4M26.7 108.6l6.6-2.4M386.7 102.8v7M266.7 56.5l6.6 2.4M166.7 122.9l-6.7-2.4M246.7 32.6l6.6-2.4M133.3 20.7l6.7-2.4M233.3 96.9l6.7 2.3M286.7 97.5l6.6 2.4M346.7 58.8l6.6 2.4M433.3 101l-6.6-2.3M220 124.7l6.7 2.3M446.7 79.3l6.6 2.3M340 24.6l6.7-2.4M93.3 91l6.7-2.3M133.3 32l6.7-2.3M426.8 80.3l6.5 2.7M293.3 82.8l6.7 2.4M80 109.8l6.7-2.3M473.3 101.9l6.7-2.4M33.3 77.7l6.7-2.4M213.3 64.7l6.7-2.4M400 48.7l6.7 2.3M473.3 98.9l6.7-2.4M73.3 73.1l6.7-2.3M300 49l6.7 2.3M213.4 5.1l6.6-2.4M93.3 102l6.7-2.3M333.3 49.4l6.7 2.3M233.3 76.6l6.7-2.4M380 35.5l6.7 2.3M446.7 88.6l6.6 2.4M246.7 42.7l6.6-2.3M440 101.8l6.7 2.3M140 96.8l6.7 2.4M146.7 99.2l6.6 2.3M220 86l6.7 2.3M126.7 95.2l6.6 2.3M93.3 68.7l6.7-2.3M213.4 83.1l6.6 2.6M413.3 80l6.7 2.3M106.7 45.9l6.6-2.3M266.7 11.6l6.6 2.3M306.7 51.3l6.6 2.3M333.3 42.6l6.7 2.3M446.7 87.2l6.6 2.3M26.7 66.1l6.6-2.3M433.3 65.3l6.7 2.3M393.3 26.2l6.7 2.3M6.7 148.8l-6.7 2.2M53.3 93.7l6.7-2.2M253.3 93.4l6.7-2.3M413.3 87.2l6.7 2.3M200 121.7l6.7 2.3M233.3 5.2l6.7-2.3M193.3 32.9l6.7 2.3M133.3 28.8l6.7-2.3M226.7 49.7l6.6-2.3M253.3 35.3l6.7-2.2M153.3 53.2l6.7 2.2M293.3 68.7l6.7 2.3M286.7 20.8l6.6 2.3M320 122.4v7.1M53.3 101.3l6.7-2.2M286.7 93.4l6.6 2.2M360 28l6.7-2.2M213.3 82.8l6.7 2.3M153.3 67.5l6.7 2.2M113.3 100.2l6.7 2.3M153.3 58.4l6.7 2.2M306.7 78.9l6.6 2.3M213.3 38.1l6.7-2.3M193.3 121.7l6.7 2.3M120 97.9l6.7 2.2M0 109.8l6.7-2.2M266.7 48l6.6-2.2M186.7 89.8l6.6 2.2M226.7 111.6l6.6 2.2M433.3 39.1l6.7 2.2M226.7 73.1l6.6-2.2M260 14.4v7.1M400 28.5v7M346.7 76.8l6.6 2.2M453.3 70.4l6.7 2.2M80 112.5l-6.7 2.2M380 20.3l6.7 2.2M100 41.8l6.7-2.2M200 28.2v7M260 124.8l6.7 2.2M120 107.6l6.7 2.2M66.7 56.2l6.6-2.2M380 84l6.7 2.2M160 69.7l6.7 2.2M446.7 107.6l-6.7-2.1M86.7 39.8l6.6-2.1M340 80.7l6.7 2.2M193.3 46l6.7 2.2M240 90.1l6.7-2.2M386.7 71l6.6 2.1M173.3 113.9l6.7 2.2M73.3 114.7l-6.6 2.1M453.3 73.9l6.7 2.1M453.3 79.4l6.7 2.1M60 107.9l6.7-2.2M413.3 46.4l6.7 2.2M280 49.4l6.7-2.2M146.7 104.2l6.6 2.1M326.7 90.8l6.6 2.1M53.3 119.3l6.7-2.1M393.3 25.4l6.7 2.2M466.7 114l6.6 2.2M106.7 69.3l6.6 2.1M300 76.8l6.7 2.1M433.3 71.8l6.7 2.1M453.3 76.8l6.7 2.1M413.3 88.2l6.7 2.1M226.7 134.4l6.6 2.1M160 55.4l6.7 2.1M353.3 93.8l6.7 2.1M306.7 59.9l6.6 2.1M220 52.3l6.7 2.1M353.3 24.1l6.7-2.1M273.3 49.9l6.7-2.1M346.7 137.6l-6.7 2.1M206.7 104.3l6.6 2.1M180 100.7l6.7 2.1M166.7 33.9v7M220 109.5l6.7 2.1M400 100.6l-6.7 2.1M53.3 74.2l6.7-2.1M166.7 52.7l6.6 2.1M453.3 84.5l6.7 2.1M346.7 33.4l6.4-2.7M106.7 78.8l6.6 2.1M466.7 100.9l6.6-2M486.7 98.1l6.6-2.1M73.3 57.9l6.7-2.1M440 83.6l6.7 2.1M393.3 85.9l6.7-2M146.7 118.2l-6.7-2.1M240 86.3l6.7-2.1M313.3 50.5l6.7 2.1M440 100.7l6.7 2.1M206.7 8.5l6.6 2.1M206.7 23l6.6-2.1M413.3 78.4l6.7 2M160 50.7l6.7 2M306.7 63.3l6.6 2.1M100 63.3l6.7-2M53.3 55.7l6.7-2.1M300 65.7l6.7 2M240 50.1l6.7-2.1M380 22.2l6.7 2M100 32.7l6.7-2M213.3 114.5l6.7 2M473.3 68.1l6.7 2.1M253.3 77.9l6.7-2.1M233.3 73.6l6.7-2.1M413.3 76.3l6.7 2M460 94l6.6-2.3M400 47.7l6.7 2M286.7 80.8l6.6 2M413.3 84.7l6.7 2M6.7 82.7l6.6-2.1M186.7 39.7l6.6 2M386.7 24.2l6.6 2M240 58.2l6.7-2M480 112.4l6.7 2M246.7 1.5l6.6 2M126.7 39.6l6.6-2M126.7 46.9l6.6-2.1M333.3 59.6l6.7 2M186.7 35.5l6.6 2.1M153.3 48.7l6.7 2M206.7 112.5l6.6 2M373.3 87.4l6.7 2M453.3 109.6l-6.6-2M393.3 33.5l6.7 2M406.7 37.1l6.6 2M246.7 74.7l6.6-2M140 83.6l6.7 2M266.7 15.6l6.6 2M313.3 115.9l6.7 2M220 85.7l6.7 2M453.3 83.2l6.7 2M406.7 87.8l6.6 2M213.3 122.7l6.7 2M113.3 76.2l6.7 2M213.3 82.2l6.7 2M486.7 114.4l6.6 2M480 63.7l6.7 2M120 111.8l-6.7-2M446.7 83.8l6.6 2M426.7 50.4l6.6 1.9M413.3 89.8l6.7 2M6.7 137.1l6.6-1.9M160 60.6l6.7 2M453.3 81.6l6.7 2M293.3 99.9l6.7 2M473.3 108.2l6.7 2M346.7 117.3l6.6-2M326.7 49.4l6.6 2M46.7 82.7l6.6-2M220 35.8l6.7-1.9M380 60.6l6.7 2M326.7 86.7l6.6 1.9M306.7 35.4l6.6 2M313.3 91.4l6.7 1.9M486.7 63.3l6.6-2M220 106.2l6.7 1.9M320 98.4l6.7 2M153.3 88.6l6.7 1.9M320 129.5l6.7-2M320 117.9l6.7-2M173.3 58.4l6.7 1.9M280 18.9l6.7 1.9M466.7 71.6l6.6 2M160 116.4l6.7 1.9M386.7 80.5l6.3 2.8M340 85.9l6.7 1.9M286.7 103.7v7M253.3 45.2l6.7-2M180 82.4l6.7 1.9M186.7 95.8v7M133.3 19.5l6.7-1.9M360 60.8l6.7 1.9M233.3 136.5l6.7 2M240 44.7l6.7-2M193.3 7.8l6.7-1.9M300 127.5l6.7 1.9M246.7 91.2l6.6-1.9M233.3 93.7l6.7 1.9M160 28.4l6.7 1.9M320 62.6v6.9M306.7 31.5l6.6 1.9M133.3 106.5l6.7 1.9M280 47.8l6.7-2M66.7 59.8l6.6-1.9M106.7 104.3l6.6 1.9M226.7 115.8l6.6 1.9M426.7 83.1l6.6 1.9M200 48.2l6.7 1.9M173.3 25.2l6.7 1.9M253.3 133.3l6.7 1.9M213.3 20.9v6.9M346.7 82.9l6.6 1.9M93.3 106.1l6.7-1.9M333.3 62.5l6.7 1.9M426.7 87.9l6.6 1.8M440 83.4l6.7 1.8M420 78.3l6.7 1.9M460.3 47.8l6.4 2.7M193.3 8.5l6.7-1.9M320 93.3l6.7 1.9M433.3 89.7l6.7 1.9M220 91.5l6.7 1.9M400 70.8l6.7 1.8M220 95.9l6.7 1.9M346.7 87.8l6.6 1.9M406.7 31.4l6.6 1.9M446.7 68.5l6.6 1.9M153.3 63.1l6.7 1.9M393.3 74.9l6.7 1.9M433.3 77.5l6.7 1.8M480 103.5l6.7 1.8M233.3 70.9l6.7-1.8M353.3 111.9l6.7-1.8M106.7 83.7l6.6 1.9M386.7 34.1l6.6 1.8M153.3 16.5l6.7-1.8M453.3 85.8l6.7 1.8M426.7 54.7l6.6 1.9M333.3 88.6l6.7 1.9M333.3 84l6.7 1.9M186.7 13.5l6.6-1.9M440 53l6.7 1.8M213.3 134.4l-6.6-1.9M433.3 37.8l6.7 1.8M460 72.6l6.7 1.8M280 108.9l6.7 1.8M460 102.8l6.7-1.9M186.7 12.6l6.6-1.9M146.7 21.1l6.6-1.9M220 132.6l6.7 1.8M373.3 26.4l6.7 1.8M386.7 77.9l6.6 1.9M333.3 51.4l6.7 1.8M360 49.8l6.7 1.8M493.3 104.5l6.7 1.8M480 100.6l6.7-1.8M73.3 111.7l6.7-1.9M426.7 98.6l6.6 1.8M200 10.3l6.7-1.8M160 90.5l6.7 1.9M166.8 13.2l6.5-2.2M200 114.7l6.7 1.9M226.7 119.6l6.6 1.8M313.3 53.6l6.7 1.8M233.3 109.6l6.7 1.8M446.7 85.2l6.6 1.8M186.7 115.1l6.6 1.8M326.7 122.8l6.6 1.8M346.7 64.5l6.6 1.8M293.3 140.3l6.7 1.7M146.7 80.7l6.6 1.8M6.7 93.3l6.6-1.8M420 48.6l6.7 1.8M120 48.6l6.7-1.7M273.3 121.6l6.7 1.8M386.7 73.1l6.6 1.8M420 45.7l6.7 1.8M406.7 83.3l6.6 1.8M280 41.3l6.7-1.8M326.7 127.5l6.6 1.8M146.7 51.4l6.6 1.8M226.7 89.6l6.6 1.8M146.7 39.3l6.6 1.8M346.7 22.2l6.6-1.8M106.7 93.6l6.6 1.8M326.7 95.2l6.6 1.8M93.3 71.9l6.7-1.7M453.3 97.6l6.7-1.8M326.7 82.3l6.6 1.7M293.3 30.7l6.7 1.7M240 133.8l6.7 1.8M333.3 78.9l6.7 1.8M146.7 56.7l6.6 1.7M353.3 41.4l6.7 1.7M320 108.3l6.7 1.7M286.7 67.2l6.6-1.7M146.7 46.9l6.6 1.8M153.3 101.5l6.7 1.7M473.3 102.3l6.7-1.7M326.7 57.9l6.6 1.7M273.3 72.1l6.7-1.7M326.7 60.8l6.6 1.7M493.3 95l6.7-1.7M420 34.6l6.7 1.8M300 133.7l6.7 1.8M366.7 31.9l6.6-1.8M173.3 119.5l6.7 1.7M333.3 92.9l6.7 1.7M200 35.2l6.7 1.7M353.3 30.5l6.4-2.7M473.3 109.7l6.7 1.7M293.3 50.7l6.7-1.7M300 58.2l6.7 1.7M293.3 23.1l6.7 1.7M253.3 139.3l6.7 1.7M153.3 35.4l6.7 1.7M153.3 119.9l-6.6-1.7M346.7 92.1l6.6 1.7M253.3 19.8l6.7 1.7M486.7 117.8l6.6 1.7M460 78.9l6.7 1.7M113.3 85.6l6.7 1.6M306.7 139.1l6.6 1.7M193.3 65.3l6.7 1.6M46.7 125.4l6.6-1.7M153.3 94.9l6.7 1.6M233.3 51.7l6.7-1.6M53.3 68.6l6.7-1.7M460 76l6.7 1.7M206.7 50.1l6.6-1.7M160 112.2l6.7 1.7M293.3 109.2l6.7 1.7M453.3 48l6.7 1.7M480 120.8l-6.7-1.7M186.7 127.6l-6.7-1.6M280 68.9l6.7-1.7M246.7 84.2l6.6-1.6M220 85.1l6.7 1.6M113.3 55.8l6.7-1.7M333.3 142.7l-6.6 1.7M486.7 62.1l6.6-1.6M213.3 119.5l6.7 1.7M160 65l6.7 1.6M233.3 101.7l6.7 1.6M486.7 111.9l6.6 1.6M146.7 16.4l6.6-1.7M106.7 64.9l6.6 1.6M146.7 69.9l6.6 1.7M233.3 140.1l-6.6-1.7M273.3 127.3l6.7 1.6M240 130.6l6.7 1.7M6.7 107.6l6-3.2M466.7 101.1l6.6-1.6M453.3 89.5l6.7 1.6M133.3 35.2l6.7-1.6M466.7 77.7l6.6 1.6M266.7 85.2l6.6 1.6M340 90.5l6.7 1.6M140 108.4l6.7 1.6M480 61.7l6.7 1.6M320 103.5l6.7 1.7M146.7 75.3l6.6 1.6M160 103.2l6.7 1.6M173.3 124.5l-6.6-1.6M106.7 88.5l6.6 1.6M480 60.5l6.7 1.6M273.3 81.5l6.7-1.5M493.3 121.9l6.7 1.6M400 35.5l6.7 1.6M293.3 75.2l6.7 1.6M306.7 27.2l6.6 1.6M433.3 83l6.7 1.6M433.3 92.7l6.7 1.6M46.7 86.7l6.6-1.6M340 128.6l6.7-1.6M166.7 78.2l6.6-1.6M160 42.5l6.7 1.6M40 64.5l6.7-1.5M453.3 87l6.7 1.6M286.7 27l6.6 1.6M246.7 87l6.6-1.6M53.3 54.5l6.7-1.6M266.7 135.9l6.6-1.6M193.3 79.8l6.7 1.6M320 145.4l-6.7-1.5M446.7 51.8l6.6 1.5M440 89.9l6.7 1.6M153.3 106.3l6.7 1.6M473.3 79.3l6.7 1.5M160 46.3l6.7 1.5M113.3 71.4l6.7 1.5M160 96.5l6.7 1.6M300 123.9l6.7 1.5M446.7 90.3l6.6 1.5M420 53.2l6.7 1.5M213.3 68.7l6.7-1.5M340 75.3l6.7 1.5M306.7 118.7l6.6 1.5M60 66.9l6.7-1.5M186.7 56.8l6.6 1.5M206.7 108.7l6.6 1.6M300 25.7l6.7 1.5M493.3 64.3l6.7-1.5M193.3 116.9l6.7 1.6M400 93.4l6.7-1.5M473.3 95.9l6.7-1.5M213.3 4.1l6.7-1.5M326.7 131.8l6.6 1.5M466.7 115.5l6.6 1.5M213.3 27.8l6.7-1.5M180 126l-6.7-1.5M186.7 95.8l6.6 1.5M60 51.3l6.6-1.8M200 41l6.7 1.5M280 53.4l6.7-1.5M240 46.3l6.7-1.5M386.7 76.1l6.6 1.4M333.3 138.6l6.7-1.5M233.3 117.7l6.7 1.4M100 66.4l6.7-1.5M486.7 119.6l6.6 1.5M380 32.6l6.7 1.5M286.7 110.7l6.6-1.5M460 81.5l6.7 1.5M113.3 80.9l6.7 1.5M426.7 96.3l6.6 1.5M140 45.4l6.7 1.5M140 49.9l6.7 1.5M213.3 81.1l6.7 1.4M160 107.9l6.7 1.4M260 4.8l6.7 1.4M486.7 122.2l-6.7-1.4M233.3 20v6.8M426.7 78.5l6.6 1.5M233.3 33.1v6.9M226.7 108.1l6.6 1.5M340 94.6l6.7 1.5M406.7 85.8l6.6 1.4M193.3 129.1l-6.6-1.5M293.3 104.2l6.7 1.4M113.3 106.2l6.7 1.4M326.7 137.4l6.6-1.4M480 114.9l6.7 1.5M213.3 42.2l6.7-1.4M186.7 15.8l6.6-1.4M480 99.5l6.7-1.4M440 39.6l6.7 1.5M126.7 82.5l6.6 1.4M40 69.4l6.7-1.4M440 87.2l6.7 1.4M233.3 132.4l6.7 1.4M393.3 83.1l6.7-1.4M193.3 41.7l6.7 1.5M300 105.6l6.7 1.5M266.7 143l-6.7-1.4M253.3 136.5l6.7 1.4M253.3 130.1l6.7 1.5M120 43.5l6.7-1.4M493.3 123.6l-6.6-1.4M486.7 65.7l6.6-1.4M140 55.3l6.7 1.4M173.3 11l6.7-1.5M166.7 14.8l6.6 1.5M226.7 80.8l6.6-1.4M273.3 58.7l6.7-1.4M493.3 99.9l6.7 1.4M393.3 83.4l6.7-1.4M240 92.6l6.7-1.4M233.3 88.1l6.7 1.4M153.3 41.1l6.7 1.4M466.7 92.6l6.6-1.4M346.7 22.4l6.6-1.4M260 26.2l6.7-1.3M126.7 105.1l6.6 1.4M273.3 74.3l6.7 1.4M86.7 107.5l6.6-1.4M120 26.9l6.7-1.4M240 2.9l6.7-1.4M360 85.7l6.7 1.4M193.3 60.9l6.7 1.3M26.7 81.8l6.6-1.4M220 84.2l6.7 1.3M486.7 109.1l6.6-1.4M53.3 125.6l-6.6 1.4M213.3 20.9l6.7-1.4M153.3 110.9l6.7 1.3M440 99.3l6.7-1.3M293.3 59.5l6.7-1.3M160 32.5l6.7 1.4M453.3 108l6.7 1.3M246.7 128.8l6.6 1.3M206.7 75.6l6.6 1.3M480 102.3l6.7 1.3M220 71.8l6.7 1.3M200 21.6l6.7 1.4M140 68.6l6.7 1.3M140 79.4l6.7 1.3M266.7 1.5l6.6 1.4M333.3 74l6.7 1.3M326.7 72.6l6.6 1.4M400 82l6.7 1.3M246.7 94.7l6.6-1.3M393.3 35.9l6.7 1.3M326.7 77.6l6.6 1.3M206.7 5.5l6.6-1.4M440 91.6l6.7 1.3M120 87.2l6.7-1.3M240 121.9l6.7 1.4M413.3 33.3l6.7 1.3M300 44.3l6.7 1.3M406.7 84.4l6.6 1.4M420 96.9l6.7 1.3M220 19.5v6.8M166.7 13.4l6.6 1.3M473.3 73.6l6.7 1.3M166.7 98.1l6.6 1.3M320 119.4l6.7 1.3M180 31l6.7 1.3M80 104.3l6.7-1.3M173.3 99.4l6.7 1.3M306.7 84.2l6.6 1.3M460 83.6l6.7 1.3M360 88.8l6.7 1.3M393.3 71l6.7 1.3M193.3 11.6l6.7-1.3M380 28.2l6.7 1.3M80 101.6l6.7-1.3M193.3 20.3l6.7 1.3M493.3 121.1l6.7 1.3M146.7 66.2l6.6 1.3M280 34.2l6.7 1.3M360 102.2l6.7-1.3M460 107.2l6.7 1.3M140 74l6.7 1.3M273.3 17.6l6.7 1.3M326.7 67.5l6.6 1.2M300 44.9l6.7 1.3M366.7 84.2l6.6 1.3M273.3 45.8l6.7-1.3M366.7 28.8l6.6 1.3M493.3 119.5l6.7 1.3M446.7 54.8l6.6 1.3M146.7 61.8l6.6 1.3M293.3 39l6.7 1.2M253.3 98.1l6.7-1.3M93.3 75.6l6.7-1.3M453.3 88.7l6.7 1.2M346.7 113.2l6.6-1.3M313.3 136l6.7 1.2M466.7 101.8l6.6-1.2M253.3 0l6.7 1.2M466.7 102.6l6.6-1.2M120 78.2l6.7 1.2M220 135.6l-6.7-1.2M246.7 119.5l6.6 1.2M120 58.6l6.7 1.2M186.7 9.1l6.6-1.3M233.3 91.4l6.7 1.2M333.3 97l6.7 1.2M486.7 61.2l6.6-1.2M333.3 133.3l6.7-1.2M166.7 92.4l6.6 1.2M253.3 3.5l6.7 1.3M226.7 59.6l6.6-1.2M486.7 120.7l6.6 1.2M466.7 108.5l6.6 1.2M286.7 69.9l6.6-1.2M113.3 25.1l6.7-1.2M53.3 58.5l6.7-1.2M420 97.4l6.7 1.2M86.7 45.4l6.6-1.2M406.7 49.7l6.6 1.2M226.7 74.8l6.6-1.2M366.7 99.6l6.6-1.2M126.7 109.8l6.6 1.2M446.7 91.5l6.6 1.2M273.3 29.4l6.7 1.2M246.7 61.3l6.6-1.2M466.7 91.7l6.6-1.2M280 131.2l6.7 1.2M226.7 131.2l6.6 1.2M480 77.1l6.7-1.1M380 64.6l6.7 1.2M400 81.7l6.7 1.2M140 113.7l6.7 1.2M300 43.9l6.7 1.2M13.3 109.4l6.7-1.2M121.5 33.8l5.2-4.3M180 88.6l6.7 1.2M166.7 47.8l6.6 1.2M440 89.1l6.7 1.2M206.7 4.6l6.6-1.2M33.3 92.7l6.7-1.2M200 66.9l6.7 1.2M113.3 109.8l-6.6-1.1M200 118.5l6.7 1.1M160 17.3l6.7 1.2M240 76.2l6.7 1.1M460 85.2l6.7 1.1M206.7 36.9l6.6 1.2M486.7 111.4l6.6-1.2M113.3 62.3l6.7 1.2M180 94.7l6.7 1.1M333.3 136l6.7-1.2M93.3 80.4l6.7-1.1M286.7 63.9l6.6-1.1M360 39.8l6.7-1.2M153.3 24.4l6.7-1.2M333.3 68.7l6.7 1.2M206.7 73.3l6.6 1.2M153.3 47.4l6.7-1.1M266.7 138.3l6.6-1.1M220 19.5l6.7 1.2M140 103.1l6.7 1.1M260 14.4l6.7 1.2M420 86.7l6.7 1.2M173.3 14.7l6.7-1.1M300 62.2l6.7 1.1M166.7 118.3l6.6 1.2M233.3 47.4l6.7-1.1M166.7 104.8l6.6 1.2M166.7 33.9l6.6 1.1M473.3 117l6.7 1.1M440 82.7l6.7 1.1M273.3 33.1l6.7 1.1M260 1.2l6.7 1.1M200 51.3l6.7 1.1M240 106.6l6.7 1.1M160 50.3l6.7 1.1M146.7 15.6l6.6-1.1M173.3 93.6l6.7 1.1M206.7 16.9l6.6 1.1M180 27.1l6.7 1.1M266.7 32l6.6 1.1M260 86.3l6.7-1.1M13.3 91.5l6.7-1.1M280 113.5l6.7-1.1M493.3 103.1l6.7-1.1M213.3 127.7l6.7 1.1M113.3 66.5l6.7 1.1M213.3 3.4l6.7-1.1M446.7 45v6.8M273.3 102l6.7 1.1M113.3 25.3l6.7-1.1M353.3 108.4l6.7-1.1M240 114.8l6.7 1M153.3 27.4l6.7 1M100 108.4l-6.7 1.1M140 38.2l6.7 1.1M140 65.1l6.7 1.1M366.7 32.6l6.6-1.1M246.7 1.1l6.6-1.1M260 33.1l6.7-1.1M306.7 118.7v6.7M340 69.9l6.7 1.1M366.7 98.9l6.6-1.1M173.3 20.4l6.7-1.1M266.7 73.2l6.6-1.1M166.7 98.1v6.7M326.7 144.4l-6.7 1M286.7 60.6l6.6-1.1M280 25.9l6.7 1.1M140 60.8l6.7 1M293.3 122.8l6.7 1.1M126.7 21.7l6.6-1M193.3 52.4l6.7-1.1M106.7 44.3l6.6-1M353.3 59.7l6.7 1.1M426.7 98.7l-6.7-1.1M106.7 61.3l6.6 1M246.7 132.3l6.6 1M266.7 21.2l6.6 1.1M286.7 129.5l6.6-1.1M180 13.6l6.7-1M366.7 23.9l6.6-1.1M140 33.6l6.7-1M400 88.8l6.7-1M466.7 80.6l6.6 1M240 13.7l6.7 1M226.7 88.3l6.6 1M166.7 44.1l6.6 1M306.7 102.6l6.6 1M233.3 9.3l6.7-1M240 85.2l6.7-1M246.7 115.8l6.6 1M360 31.7l6.7-1M286.7 142l-6.7 1M200 72.3l6.7 1M160 19l6.7 1M220 121.2l6.7 1M360 95.9l6.7 1M246.7 135.6l6.6.9M86.7 103l6.6-1M260 91.1l6.7-1M253.3 30.2l6.7-.9M460 110.8l6.7 1M446.7 58.9l6.6 1M453.3 103.2l6.7 1M346.7 96.1l6.6.9M300 142l6.7 1M260 82.6l6.7-1M300 85.2l6.7-1M233.3 14.7l6.7-1M213.3 131.7l6.7.9M100 46.1l6.7-1M280 63l6.7.9M180 34.6l6.7.9M486.7 116.6l6.6.9M160 14.1l6.7-.9M173.3 62.4l6.7 1M480 70.2l6.7.9M226.7 83.3l6.6-.9M233.3 113.8l6.7 1M280 140.8l6.7-.9M353.3 97l6.7 1M473.3 99.5l6.7-1M406.7 87.3l6.6.9M460 86.6l6.7.9M466.7 110.2l6.6.9M266.7 42.7l6.6-.9M286.7 137.3l6.6-.9M240 95.6l6.7-.9M120 63.5l6.7.9M293.3 24.8l6.7.9M306.7 143.5l-6.7-.9M260 124.8v6.8M166.7 109.3l6.6-.9M113.3 53.3l6.7-.9M213.3 79.6l6.7.9M100 70.2l6.7-.9M55.2 85.3l4.8-4.7M460 91.6l6.7-1M293.3 128.4l6.7-.9M180 44.8l6.7.9M126.7 40.9l6.6-.9M93.3 84.9l6.7-.9M153.3 115.5l6.7.9M426.7 79.5l6.6.9M460 103.1l6.7.9M360 98l6.7.9M493.3 117.5l6.7.9M473.3 118.6l6.7.9M146.7 110l6.6.9M13.3 104.8l6.2-2.8M126.7 20.9l6.6-.9M426.7 47.5l6.6.8M286.7 134.7l6.6-.9M460 109.3l6.7.9M240 8.3l6.7.9M286.7 38.1l6.6-.9M293.3 95.6l6.7.9M473.3 103.1l6.7-.8M466.7 69.2l6.6.9M226.7 77.4l6.6-.8M440 99.7l6.7-.9M493.3 116.4l6.7-.9M280 80l6.7.8M220 62.3l6.7-.8M240 111.4l6.7.9M286.7 35.5l6.6.8M326.7 143.5l6.6-.9M14.7 103.2l5.3-4.1M233.3 40l6.7-.9M180 12.2l6.7-.8M293.3 48.3l6.7-.9M173.3 66.4l6.7.8M173.3 41.4l6.7-.9M166.7 57.5l6.6.9M233.3 20l6.7-.8M226.7 10.2l6.6-.9M273.3 108l6.7.9M466.7 83l6.6.9M213.3 48.4l6.7.8M100 45.1l6.7-.8M280 44.5l6.7-.8M306.7 132.1l6.6.8M453.3 101.9l6.7.9M486.7 105.3l6.6-.8M253.3 124l6.7.8M260 141.6l-6.7-.8M220 2.7l6.7-.8M460 87.6l6.7.9M406.7 48.1l6.6.8M233.3 89.3l6.7.8M206.7 56l6.6-.8M326.7 110l6.6-.8M340 98.2l6.7.8M466.7 111.8l6.6.8M206.7 52.4l6.6-.8M233.3 105.8l6.7.8M220 82.5l6.7.8M280 87.2l6.7.8M180 40.5l6.7-.8M346.7 109.2l6.6-.8M453.3 106.4l6.7.8M366.7 90.1l6.6.8M360 29.6l6.7-.8M246.7 19l6.6.8M126.7 42.1l6.6.8M286.7 132.4l6.6-.8M113.3 57.8l6.7.8M280 92.6l6.7.8M166.7 71.9l6.6-.8M426.7 98.2l6.6.8M166.7 83.1l6.6-.7M226.7 45.7l6.6-.8M493.3 116.7l6.7-.8M240 39.1l6.7-.7M126.7 112.6l-6.7-.8M313.3 120.2l6.7-.8M246.7 123.3l6.6.7M226.7 33.9l6.6-.8M146.7 18.4l6.6-.7M180 19.3l6.7.8M293.3 36.3l6.7-.7M233.3 129.9l6.7.7M333.3 129.3l6.7-.7M333.3 101l6.7.7M466.7 84.9l6.6.7M246.7 98.8l6.6-.7M486.7 98.8l6.6-.7M226.7 33.9v6.7M160 14.1l6.7-.7M180 121.2l6.7.7M273.3 96.1l6.7.7M313.3 142.9l6.7.7M293.3 45.6l6.7-.7M133.3 40l6.7.8M260 135.2l6.7.7M120 72.9l6.7.7M333.3 113.6l6.7-.7M280 96.8l6.7.7M213.3 51.6l6.7.7M240 82l6.7-.7M313.3 97.7l6.7.7M53.3 75l6.7-.7M226.7 20.7l6.6-.7M246.7 138.6l6.6.7M486.7 67.5l6.6.7M300 101.9l6.7.7M186.7 28.2l6.6-.7M126.7 54l6.6.7M373.3 19.6l6.7.7M246.7 9.2l6.6-.7M160 23.2l6.7-.7M126.7 59.8l6.6.7M366.7 96.9l6.6-.7M246.7 26.3l6.6-.7M280 103.1l6.7.6M313.3 107.6l6.7.7M246.7 87.9l6.6-.6M133.3 37.6l6.7.6M326.7 112.9l6.6.7M173.3 12.9l6.7-.7M186.7 61.5l6.6-.6M426.7 92.1l6.6.6M273.3 117.5l6.7.7M373.3 22.8l6.7-.6M473.3 116.2l6.7.6M473.3 114.3l6.7.6M260 53l6.7.7M460 88.6l6.7.7M260 96.8l6.7-.6M348.6 37.4l4.7-4.8M0 106.3l6.7-.6M253.3 25.6l6.7.6M80 58.1l5.4-4M133.3 97.5l6.7-.7M13.3 95v6.7M206.7 65.3l6.6-.6M300 131.4l6.7.7M320 112.3l6.7.6M226.7 85.5l6.6-.6M253.3 48.4l6.7-.7M253.3 140.8l-6.6-.6M146.7 32.6l6.6-.6M166.7 18.5l6.6.6M206.7 68.1l6.6.6M193.3 27.5l6.7.7M273.3 25.3l6.7.6M226.7 40.6l6.6-.6M160 120.5l-6.7-.6M306.7 111.2l6.6.7M286.7 123.5l6.6-.7M306.7 97.1l6.6.6M86.7 42.3l6.6-.6M253.3 116.8l6.7.7M133.3 44.8l6.7.6M360 79v6.7M366.7 49l6.6.6M273.3 137.2l6.7.6M266.7 131.9l6.6-.6M220 46.3l6.7-.6M313.3 62l6.7.6M313.3 132.9l6.7-.6M186.7 52.9l6.6-.5M273.3 140.2l6.7.6M300 96.5l6.7.6M326.7 100.4l6.6.6M146.7 114.9l6.6.6M206.7 5.7l6.6-.6M300 24.8l6.7.6M186.7 32.3l6.6.6M400 83.9l6.7.5M326.7 115.9l6.6.6M273.3 112.9l6.7.6M300 118.1l6.7.6M153.3 32l6.7.5M126.7 64.4l6.6.6M366.7 25.8l6.6.6M153.3 14.7l6.7-.6M200 28.2l6.7-.6M493.3 96l6.7-.6M366.7 93.8l6.6.5M233.3 1.9l6.7-.6M413.3 98l6.7-.6M226.7 15.2l6.6-.5M133.3 102.5l6.7.6M133.3 54.7l6.7.6M306.7 135.5l6.6.5M333.3 104.7l6.7.5M146.7 23.8l6.6.6M106.7 49.3l6.6-.5M306.7 107.1l6.6.5M273.3 41.8l6.7-.5M266.7 140.7l6.6-.5M293.3 62.8l6.7-.6M280 128.9l6.7.6M133.3 113.1l-6.6-.5M253.3 8.5l6.7-.5M253.3 102.9l6.7-.5M280 118.2l6.7-.5M146.7 17l6.6-.5M500 124.2l-6.7-.6M346.7 99l6.6.5M273.3 143.6l-6.6-.6M333.3 120.3l6.7.5M233.3 121.4l6.7.5M280 143l-6.7.6M100 74.3l6.7-.5M213.3 76.9l6.7.6M120 42.6l6.7-.6M220 74.3l6.7.5M286.7 39.5l6.6-.5M306.7 125.4l6.6.5M360 93.3l6.7.5M486.7 103.6l6.6-.5M366.7 32.8l6.6.5M106.7 99.7l6.6.5M166.7 40.9l6.6.5M413.3 39.1l6.7.5M493.3 103.1l6.7-.5M466.7 107.1l6.6.4M260 43.2l6.7-.5M240 74.2l6.7.5M160 96.5v6.7M200 5.9l6.7-.4M180 9.5l6.7-.4M326.7 105.2l6.6-.5M393.3 73.1l6.7.5M320 132.3l6.7-.5M326.7 120.7l6.6-.4M353.3 99.5l6.7.5M340 116.8l6.7.5M193.6 69.1l6.4 2M186.7 118.8l6.6.5M266.7 24.9l6.6.4M473.3 103.9l6.7-.4M166.7 20l6.6.4M206.7 71.5l6.6.4M240 99.2l6.7-.4M293.3 90.8l6.7.4M313.3 111.9l6.7.4M340 124.8l6.7-.4M253.3 120.7l6.7.5M233.3 26.8l6.7-.4M486.7 100.4l6.6-.5M173.3 88.2l6.7.4M420 39.6l6.7.5M286.7 103.7l6.6.5M173.3 19.1l6.7-.4M173.3 76.6l6.7-.4M280 70.4l6.7-.5M100 79.3l6.7-.5M220 49.2l6.7.5M146.7 35.8l6.6-.4M233.3 82.4l6.7-.4M300 47.4l6.7-.4M473.3 111.1l6.7.5M326.7 60.8v6.7M280 137.8l6.7-.5M253.3 14.9l6.7-.5M260 121.2l6.7.4M173.3 35l6.7-.4M246.7 112.3l6.6.4M226.7 87.7l6.6.4M133.3 49.5l6.7.4M173.3 30.6l6.7.4M313.3 140.8l6.7.4M286.7 139.9l6.6.4M153.3 14.5l6.7-.4M313.3 143.9l-6.6-.4M26.7 78.1l6.6-.4M133.3 79.8l6.7-.4M300 142.6l-6.7-.4M133.3 68.2l6.7.4M400 86.9l6.7.4M340 120.8l6.7.4M240 140.4l-6.7-.3M13.3 95l6.7-.3M286.7 117.7l6.6.3M140 36.2l6.7-.4M173.3 71.1l6.7.4M200 71.1l6.7.4M300 110.9l6.7.3M200 128.7l-6.7.4M273.3 86.8l6.7.4M446.7 102.2l6.6-.4M220 15.6l6.7-.4M466.7 113.9l6.6.4M233.3 64l6.7.4M233.3 67.7l6.7-.4M126.7 79.4l6.6.4M273.3 37.4l6.7.4M246.7 48l6.6.4M280 37.8l6.7.3M260 131.6l6.7.3M153.3 17.7l6.7-.4M240 119.1l6.7.4M193.3 58.3l6.7.3M246.7 44.8l6.6.4M180 56.4l6.7.4M126.7 67.8l6.6.4M360 100l6.7-.4M260 137.9l6.7.4M400 90l6.7.3M320 122.4l6.7.4M226.7 26.5l6.6.3M353.3 105.1l6.7-.4M480 111.6l6.7.3M100 84l6.7-.3M166.7 87.8l6.6.4M260 102.4l6.7-.3M246.7 56.2l6.6-.3M486.7 116.4l6.6.3M126.7 73.6l6.6.4M366.7 87.1l6.6.3M226.7 5.5l6.6-.3M346.7 105.4l6.6-.3M240 32.9l6.7-.3M300 91.2l6.7.3M293.3 136.4l6.7.3M106.7 108.7l-6.7-.3M373.3 90.9l6.7-.3M193.3 14.4l6.7-.3M206.7 42.5l6.6-.3M286.7 75.5l6.6-.3M166.7 13.2l6.6-.3M233.3 84.9l6.7.3M333.3 116.5l6.7.3M260 141l6.7-.3M133.3 83.9l6.7-.3M166.7 30.3l6.6.3M186.7 45.7l6.6.3M480 74.9l6.7.2M233.3 51.7v6.7M266.7 127l6.6.3M280 60.9l6.7-.3M480 118.1l6.7-.3M446.7 101.2l6.6.3M493.3 98.1l6.7.2M266.7 74.5l6.6-.2M313.3 129.2l6.7.3M300 31.2l6.7.3M400 85.5l6.7.3M480 120.4l6.7.3M453.3 102.8l6.7.3M233.3 44.9l6.7-.2M246.7 140.2l-6.7.2M333.3 109.2l6.7-.3M320 141.2l6.7.3M313.3 58l6.7-.3M153.3 19.2l6.7-.2M293.3 52.2l6.7-.3M186.7 20.1l6.6.2M260 47.7l6.7.3M220 10.4l6.7-.2M253.3 112.7l6.7.2M226.7 67.4l6.6.3M233.3 86.5l6.7-.2M133.3 60.5l6.7.3M246.7 103.2l6.6-.3M173.3 45.1l6.7-.3M206.7 27.6l6.6.2M340 112.9l6.7.3M306.7 129.4l6.6-.2M333.3 124.6l6.7.2M220 80.5l6.7.3M306.7 115.6l6.6.3M340 101.7l6.7.2M366.7 37.1l6.6.3M340 108.9l6.7.3M480 116.8l6.7-.2M273.3 134.3l6.7.3M233.3 33.1l6.7-.2M260 21.5l6.7-.3M220 5.2l6.7.3M240 1.3l6.7-.2M266.7 37.6l6.6-.2M293.3 37.2l6.7.3M353.3 21.8l6.7-.2M293.3 65.5l6.7.2M173.3 106l6.7.2M220 67.2l6.7.2M260 56.7l6.7-.2M213.3 74.5l6.7-.2M473.3 112.6l6.7-.2M493.3 107.7l6.7-.2M466.7 103.3l6.6-.2M293.3 131.6l6.7-.2M166.7 66.6l6.6-.2M220 59.8l6.7-.2M100 88.7l6.7-.2M166.7 62.6l6.6-.2M273.3 58.9l6.7-.2M120 67.6l6.7.2M160 14.7l6.7.1M246.7 107.7l6.6.2M106.7 53.1l6.6.2M86.7 112.3l-6.7.2M220 40.8l6.7-.2M100 93.8l6.7-.2M480 67.3l6.7.2M266.7 29.3l6.6.1M213.3 10.6l6.7-.2M480 119.5l6.7.1M240 19.2l6.7-.2M320 137.2l6.7.2M226.7 86.7l6.6-.2M480 72.8l6.7.2M233.3 58.4l6.7-.2M240 138.5l6.7.1M273.3 22.3l6.7-.2M353.3 40.2l6.7-.2M253.3 107.9l6.7.2M186.7 121.9l6.6-.2M133.3 65l6.7.1M113.3 48.8l6.7-.2M320 143.6l6.7-.1M293.3 44.1l6.7.2M6.7 95.2l6.6-.2M293.3 142.2l-6.6-.2M260 54.5l6.7-.1M220 26.3l6.7.2M340 105.2l6.7.2M133.3 36.3l6.7-.1M473.3 77l6.7.1M353.3 102l6.7.2M446.7 66.2l6.6.1M286.7 112.4l6.6-.1M300 115.5l6.7.1M260 117.5l6.7.1M240 103.3l6.7-.1M280 134.6l6.7.1M106.7 55.9l6.6-.1M306.7 25.4l6.6-.2M306.7 91.5l6.6-.1M280 75.7l6.7-.2M133.3 89.1l6.7.1M213.3 71.9l6.7-.1M273.3 61l6.7-.1M240 26.4l6.7-.1M206.7 46.3l6.6-.1M246.7 14.7l6.6.2M266.7 102.1l6.6-.1M106.7 57.9l6.6-.1M273.3 131.3l6.7-.1M213.3 5.1l6.7.1M266.7 108.1l6.6-.1M266.7 113l6.6-.1M346.7 101.9l6.6.1M266.7 81.6l6.6-.1M233.3 125.5l6.7.1M260 112.9l6.7.1M306.7 143l6.6-.1M486.7 103l6.6.1M120 54.1l6.7-.1M493.3 113.5l6.7.1M266.7 90.1l6.6.1M180 52.9h6.7M213.3 46.2l6.7.1M173.3 16.3h6.7M280 123.4l6.7.1M293.3 133.8l6.7-.1M466.7 104l6.6-.1M286.7 30.6l6.6.1M266.7 60.9l6.6.1M280 22.1l6.7.1M120 52.4h6.7M266.7 117.6l6.6-.1M100 104.2l6.7.1M260 108.1h6.7M260 37.7l6.7-.1M113.3 43.6l6.7-.1M120 82.4l6.7.1M280 30.6h6.7M493.3 109.1l6.7-.1M453.3 105.1l6.7-.1M293.3 118l6.7.1M146.7 27.3l6.6.1M226.7 1.9h6.6M100 99.7h6.7M133.3 74h6.7M313.3 103.6l6.7-.1M453.3 101.8l6.7.1M393.3 39.4h6.7M480 111.4h6.7M266.7 96.2l6.6-.1M173.3 82.4h6.7M266.7 121.6h6.6M166.7 113.9h6.6M260 29.3h6.7M493.3 110.2h6.7M220 77.5l6.7-.1M460 49.7v6.7M53.3 72.1l6.6-1.3M446.8 102.9l6.5-.9M153.3 94.9v6.6M66.7 99.1v6.6M213.3 95.9v6.5M173.3 99.4v6.6M400.5 50.6l6.2 2.4M246.7 68.2v6.5M1.2 138.8l5.5-3.7M446.8 102.9l6.5-.3M200.9 74.2l5.8 3M200 21.6v6.6M240 26.4v6.5M293.3 68.7v6.5M333.3 30.7v6.5M260 8v6.4M82.5 61.3l4.2-4.9M93.3 35l6.2-1.9M427 36.5l6.3 1.3M93.3 50.2l5.6-3.2M453.3 59.9v6.4M341.5 34.5l5.2-3.7M380 85.2l5.8 2.6M93.3 91v6.4M220 99.8v6.4M173.3 35v6.4M253.3 8.5v6.4M193.3 46v6.4M346.7 47.5v6.4M153.3 41.1v6.3M467 108.5l6.3-.3M246.7 26.3v6.3M6.7 117.8v6.4M20 120l5.7-2.7M313.3 91.4v6.3M53.3 85.1l5.5-3.2M233.3 26.8v6.3M453.3 91l6.3.9M35.7 85.8l4.3-4.6M166.7 71.9v6.3M153.3 88.6v6.3M393.7 41.5l6.3.4M486.7 71.1l6.2.8M146.7 85.6v6.3M180 82.4v6.2M106.7 33.4v6.2M333.3 62.5v6.2M280 96.8v6.3M13.3 141.5l5.4-3M140 96.8v6.3M300 51.9v6.3M240 32.9v6.2M186.7 108.9v6.2M286.7 97.5v6.2M180 76.2v6.2M453.3 91.8l6.2.1M122.6 42.4l4.1-4.7M373.3 81.8l4.9 3.9M286.7 43.7l6.1.7M186.7 102.8v6.1M253.3 124v6.1M446.7 92.9l5.5 2.6M106.7 44.7l6-.9M335.3 31.3l4.7-3.9M440.6 100.1l6.1-.4M106.7 93.6v6.1M240 58.2v6.2M93.3 84.9v6.1M267.8 54.8l5.5-2.4M180 88.6v6.1M206.7 16.9v6.1M186.7 89.8v6M153.3 82.5v6.1M420 39.6v6.1M286.7 45.8l5.9-1.3M20 94.7l5.4-2.7M273.3 102v6M326.7 55.7l4.9 3.5M266.7 102.1v6M201.5 74.7l5.2 3.1M86.7 88.4v6M346.7 76.8v6.1M393.3 96.7v6M206.7 92.6v6M266.7 90.1v6.1M426.7 77.1l5.4 2.6M380 22.2v6M300 85.2v6M286.7 123.5v6M380 85.7l5.4 2.5M180 94.7v6M160 90.5v6M186.7 39.7v6M60 81l4.7-3.7M113.3 100.2v6M193.3 14.4v5.9M15.4 142.5l4.6-3.8M226.7 61.5v5.9M40 69.4v5.9M373.3 94.3l5.9-.5M266.7 96.2v5.9M81.1 40.2l5.6-2M180 34.6v5.9M193.3 52.4v5.9M454.4 108.9l5.6 1.9M280 63v5.9M273.3 90.2v5.9M313.3 70.2v5.9M100 93.8v5.9M440 47.1v5.9M180 106.2v5.8M346.7 71v5.8M86.7 94.4v5.9M313.3 85.5v5.9M313.3 97.7v5.9M495 94.3l5-3M273.3 96.1v5.9M280 7.9v5.8M300 71v5.8M33.3 71.8v5.9M413.3 33.3v5.8M200 35.2v5.8M273.3 13.2l4.8 3.4M126.7 54v5.8M253.3 19.8v5.8M133.3 54.7v5.8M480 88.6v5.8M126.7 67.8v5.8M173.3 93.6v5.8M20 121.9l4.7-3.5M2.4 150.2l4.3-4M400 41.9v5.8M26.7 94.8l5.1-2.7M133.3 74v5.8M226.7 102.3v5.8M240 76.2v5.8M226.7 20.7v5.8M300 118.1v5.8M146.7 104.2v5.8M280 103.1v5.8M173.3 82.4v5.8M133.3 68.2v5.8M286.7 117.7v5.8M440 41.3v5.8M293.3 112.3v5.7M126.7 73.6v5.8M173.3 76.6v5.8M306.7 67.7v5.8M75.3 43.6l4.7-3.3M246.7 32.6v5.8M466.7 86.3l5.7.5M453.3 88.8l5.4 2M26.7 99.8v5.7M488.9 60.8l4.4-3.6M186.7 121.9v5.7M166.7 92.4v5.7M353.3 79v5.8M313.3 120.2v5.7M226.7 67.4v5.7M273.3 121.6v5.7M260 91.1v5.7M440 97.2l5.6 1M266.7 48v5.7M54.8 54.1l5.2-2.2M406.7 31.4v5.7M293.3 30.7v5.6M153.3 35.4v5.7M433.3 56.6v5.7M206.7 98.6v5.7M200 6.6l5.6-.5M53.3 75v5.7M266.7 32v5.6M266.7 15.6v5.6M153.3 76.9v5.6M260 102.4v5.7M40 117.4v5.6M66.7 59.8v5.6M80 45.7v5.7M500 75.3v5.6M434.9 97.4l5.1 2.4M340 23.4l5.6-.8M468.4 52.2l4.9 2.7M20 84.8v5.6M28.4 131l4.9-2.6M206.7 36.9v5.6M293.3 122.8v5.6M260 96.8v5.6M126.7 46.9v5.5M140 83.6v5.6M366.7 43.4v5.6M286.7 69.9v5.6M326.7 131.8v5.6M306.7 91.5v5.6M366.7 62.7v5.6M233.3 58.4v5.6M320 112.3v5.6M80 40.3l5.5-.8M353.3 73.5v5.5M280 123.4v5.5M246.7 9.2v5.5M240 39.1v5.6M481.5 102.4l5.2-2M173.3 113.9v5.6M80 104.3v5.5M66.7 88.5l4.1-3.7M140 55.3v5.5M473.3 81.6l5.4 1.2M246.7 123.3v5.5M406.7 30.7l5 2.2M220 40.8v5.5M260 37.7v5.5M300 25.7v5.5M480 83l4.4-3.2M73.3 67.6l4.9-2.5M340 64.4v5.5M173.3 108.4v5.5M180 100.7v5.5M200 104.4v5.5M186.7 84.3v5.5M173.3 71.1v5.5M306.7 97.1v5.5M488.2 111.1l5.1-2M86.7 45.4v5.5M146.7 75.3v5.4M333.3 37.2v5.4M306.7 73.5v5.4M226.7 15.2v5.5M213.3 5.1v5.5M486.7 84v5.4M140 68.6v5.4M266.7 121.6v5.4M120 87.2v5.5M80 92v5.4M240 8.3v5.4M453.3 92.7l5.5-.3M340 69.9v5.4M286.7 55.2v5.4M173.3 25.2v5.4M280 87.2v5.4M240 13.7v5.5M173.3 88.2v5.4M240 2.9v5.4M286.7 88v5.4M140 74v5.4M233.3 9.3v5.4M340 75.3v5.4M193.3 27.5v5.4M300 96.5v5.4M160 37.1v5.4M266.7 6.2v5.4M69 73.9l4.3-3.1M360 22.9l5.2-1.2M146.7 69.9v5.4M448.1 103.9l5.2-1.1M193.3 92v5.3M480 110.2l5.2 1.2M0 106.3v-5.3M140 108.4v5.3M140 49.9v5.4M153.3 71.6v5.3M300 136.7v5.3M380 86.6l4.8 2.4M140 103.1v5.3M461.5 103.1l5.2-1.3M113.3 90.1v5.3M300 91.2v5.3M166.7 66.6v5.3M233.3 14.7v5.3M300 65.7v5.3M120 67.6v5.3M273.3 81.5v5.3M160 69.7v5.3M333.3 30.1l4.3-3.2M160 85.2v5.3M0 123.1l3.9-3.6M146.7 27.3v5.3M193.3 111.7v5.2M260 47.7v5.3M146.7 39.3v5.3M146.7 51.4v5.3M306.7 78.9v5.3M286.7 112.4v5.3M453.3 48v5.3M286.7 75.5v5.3M360 22l5.3-.3M280 70.4v5.3M266.7 42.7v5.3M153.3 53.2v5.2M386.7 24.2v5.3M306.7 45.1l4.4 2.8M120 72.9v5.3M300 105.6v5.3M500 57.5v5.3M349.5 37.9l3.8-3.6M333.3 68.7v5.3M448.5 104.4l4.8 2M160 55.4v5.2M113.3 43.6v5.2M106.7 25.3l5.2.4M120 92.7v5.2M160 23.2v5.2M473.3 101l5.2-.9M226.7 54.4v5.2M460 89.9l5.2.3M220 10.4v5.2M133.3 49.5v5.2M486.7 73l5.2-.1M133.3 83.9v5.2M280 118.2v5.2M480 105v5.2M120 102.5v5.1M280 17.6l4.5 2.6M186.7 79.1v5.2M193.3 106.5v5.2M146.7 56.7v5.1M326.7 67.5v5.1M440 56.3v5.2M253.3 60.1l4.5-2.5M220 5.2v5.2M340 80.7v5.2M393.3 79.8l4.6 2.3M386.7 65.8v5.2M153.3 19.2v5.2M293.3 39v5.1M326.7 95.2v5.2M106.7 88.5v5.1M461.5 103.3h5.2M420 91.8v5.1M320 98.4v5.1M120 43.5v5.1M406.7 42.9v5.2M100 88.7v5.1M0 130.8l4.5-2.5M433.3 39.1v5.1M160 80.1v5.1M180 116.1v5.1M246.7 56.2v5.1M366.7 100.9l4.9-1.4M160 75v5.1M188.2 64.9l5.1.4M266.7 37.6v5.1M253.3 35.3v5.1M226.7 40.6v5.1M166.7 57.5v5.1M226.7 10.2v5M253.3 30.2v5.1M13.3 109.4v5M320 88.3v5M313.3 76.1v5.1M333.3 78.9v5.1M213.3 114.5v5M100 49.9l4.6-2.1M320 93.3v5.1M473.3 63.1v5M440 99.9l4.5 2.3M360 26.6l4.4-2.4M446.7 105.9l4.1 3M106.7 73.8v5M193.3 74.8v5M26.7 125.5v5M380 36.3v5.1M293.3 104.2v5M146.7 99.2v5M380 33.6l4.1 2.9M173.3 119.5v5M240 125.6v5M460 60v5M133.3 97.5v5M60 107.9v5M200 43.2v5M441.7 100.7l5 .3M420 34.6v5M320 74.5v5M382.1 35l4.6 2M56.5 84.6l3.5-3.6M448.4 101.3l4.9-1M213.3 122.7v5M46.7 63v5M326.7 72.6v5M140 18.3l4.7-1.7M476 84.9l4-2.9M115.5 24.8l4.5-2.1M333.3 74v4.9M6.9 145.1l4.8-1M380 93.3l3.8-3.3M320 69.5v5M275.2 4.3l4.8 1.2M253.3 102.9v5M126.7 100.1v5M166.7 78.2v4.9M253.3 3.5v5M100 74.3v5M346.7 53.9v4.9M233.3 40v4.9M320 132.3v4.9M46.7 91.8l4.3-2.5M113.3 24.5l4.9-1M346.7 82.9v4.9M333.3 26.9l4.6-1.8M126.7 95.2v4.9M220 35.8v5M266.7 85.2v4.9M146.7 110v4.9M253.3 14.9v4.9M353.3 84.8v4.9M266.7 108.1v4.9M273.3 108v4.9M413.3 93.1v4.9M266.7 127v4.9M120 26.9v4.9M286.7 30.6v4.9M73.3 49.1v4.9M133.3 20l4.8-1M320 57.7v4.9M293.3 90.8v4.8M213.3 86.9v4.9M260 108.1v4.8M146.7 80.7v4.9M106.7 78.8v4.9M226.7 122.2v4.8M253.3 98.1v4.8M220 62.3v4.9M406.7 82.9l4.5 1.6M93.3 75.6v4.8M326.7 105.2v4.8M120 58.6v4.9M40 64.5v4.9M380 44.8v4.9M386.7 37.8v4.9M53.3 58.5v4.9M113.3 66.5v4.9M46.7 86.7v4.8M153.3 101.5v4.8M120 82.4v4.8M328.9 28.3l4.4-1.8M113.3 95.4v4.8M333.3 57.3l3.5 3.4M286.7 22.2v4.8M326.7 115.9v4.8M200 109.9v4.8M173.3 20.4v4.8M86.7 107.5v4.8M313.3 136v4.8M313.3 65.4v4.8M240 106.6v4.8M320 28.9v4.7M113.3 71.4v4.8M293.3 118v4.8M180 121.2v4.8M473.3 100.6l4.8-.5M326.7 100.4v4.8M233.3 96.9v4.8M260 86.3v4.8M166.7 52.7v4.8M366.7 38.6v4.8M260 21.5v4.7M106.7 83.7v4.8M253.3 107.9v4.8M449 97.1l4.3-2.1M160 65v4.7M100 79.3v4.7M186.7 56.8v4.7M126.7 42.1v4.8M375.7 83.7l4.3 2M126.7 105.1v4.7M200 124v4.7M226.7 49.7v4.7M253.3 40.4v4.8M113.3 76.2v4.7M340 44.9v4.8M100 32.7v4.8M173.3 66.4v4.7M160 50.7v4.7M326.7 122.8v4.7M320 103.5v4.8M193.3 83.4v4.7M280 25.9v4.7M333.3 124.6v4.7M353.3 55v4.7M446.7 92.9v4.7M326.7 41.2v4.7M200 62.2v4.7M20 114.2v4.7M280 113.5v4.7M166.7 83.1v4.7M206.7 127.9v4.6M413.3 80v4.7M253.3 93.4v4.7M133.3 44.8v4.7M153.3 58.4v4.7M180 71.5v4.7M273.3 17.6v4.7M226.7 5.5v4.7M468.8 103.1l4.5-1.2M240 133.8v4.7M26.7 81.8v4.7M220 116.5v4.7M160 103.2v4.7M140 40.8v4.6M326.7 77.6v4.7M100 84v4.7M193.3 32.9v4.7M260 33.1v4.6M420 48.6v4.6M253.3 25.6v4.6M280 108.9v4.6M466.7 64.5v4.7M300 110.9v4.6M360 34.5l4.5-1.1M86.7 79.3v4.7M93.3 97.4v4.6M113.3 80.9v4.7M340 85.9v4.6M320 79.5v4.6M333.3 84v4.6M206.7 23v4.6M153.3 27.4v4.6M153.3 110.9v4.6M273.3 112.9v4.6M283.2 9.4l3.5 3M129.2 20.4l4.1-1.9M6.7 108.3l3.9-2.3M386.7 29.5v4.6M220 67.2v4.6M313.3 28.8v4.6M160 32.5v4.6M133.3 106.5v4.5M120 97.9v4.6M266.7 113v4.6M226.7 97.8v4.5M166.7 109.3v4.6M246.7 107.7v4.6M106.7 99.7v4.6M126.7 59.8v4.6M153.3 106.3v4.6M33.3 92.7v4.5M166.7 118.3v4.6M3.6 148.5l3.1-3.3M260 112.9v4.6M246.7 103.2v4.5M113.3 85.6v4.5M106.7 69.3v4.5M100 99.7v4.5M260 43.2v4.5M448.9 104.1l4.4-.9M93.3 80.4v4.5M406.7 91.9v4.5M46.7 58.5v4.5M166.7 87.8v4.6M166.7 104.8v4.5M333.3 104.7v4.5M360 88.8v4.5M366.7 79.7v4.5M482.4 99l4.3-1.4M120 54.1v4.5M113.3 48.8v4.5M153.3 48.7v4.5M86.7 103v4.5M373.3 37.4v4.5M306.7 102.6v4.5M122.4 22.3l4.3-1.5M286.7 13.6v4.5M206.7 104.3v4.4M480 80.8l4.4-.9M113.3 57.8v4.5M140 45.4v4.5M146.7 46.9v4.5M306.7 55.4v4.5M449.7 105.4l3.6 2.6M349.1 67.3l4.2 1.5M326.7 90.8v4.4M133.3 60.5v4.5M220 91.5v4.4M60 62.5v4.4M226.7 93.4v4.4M166.7 113.9v4.4M486.7 89.4v4.4M106.7 39.6v4.4M173.3 49v4.4M420 82.3v4.4M266.7 24.9v4.4M340 40.5v4.4M333.3 109.2v4.4M286.7 18.1l2.5 3.6M86.7 84v4.4M326.7 82.3v4.4M366.7 51.6v4.4M193.3 60.9v4.4M153.3 115.5v4.4M93.3 51.7l3.5-2.8M80 51.4v4.4M53.3 80.7v4.4M153.3 63.1v4.4M380 28.2v4.4M273.3 37.4v4.4M306.7 63.3v4.4M246.7 98.8v4.4M306.7 111.2v4.4M240 114.8v4.3M426.7 50.4v4.3M106.7 104.3v4.4M246.7 38.4v4.3M233.3 125.5v4.4M173.3 30.6v4.4M266.7 56.5v4.4M146.7 61.8v4.4M53.3 119.3v4.4M80 83.3v4.4M106.7 64.9v4.4M160 107.9v4.3M313.3 81.2v4.3M380 88.1l4 1.7M206.7 119.6v4.4M140 60.8v4.3M313.3 53.6v4.4M306.7 47v4.3M233.3 47.4v4.3M273.3 33.1v4.3M366.7 32.8v4.3M100 37.5v4.3M313.3 115.9v4.3M160 60.6v4.4M60 112.9v4.3M80 87.7v4.3M333.3 120.3v4.3M120 22.7l4.2-.7M326.7 127.5v4.3M350.2 38.3l3.1-3M342.8 35l3.9-1.9M280 75.7v4.3M466.7 56.2v4.3M113.3 25.3v4.3M346.7 87.8v4.3M180 40.5v4.3M466.7 87.5l4.2.3M293.3 95.6v4.3M315.7 26.5l4.3-.3M293.3 99.9v4.3M160 19v4.2M313.3 107.6v4.3M333.3 88.6v4.3M33.3 118.4v4.2M373.3 41.9v4.2M193.3 41.7v4.3M46.7 78.4v4.3M180 67.2v4.3M280 16.1l2.8 3.1M186.7 15.8v4.3M182.6 60.2l4.1 1.3M20 90.4v4.3M306.7 27.2v4.3M13.3 114.4v4.3M433.3 52.3v4.3M253.3 55.9v4.2M246.7 14.7v4.3M113.3 62.3v4.2M280 92.6v4.2M33.3 82.8v4.2M120 78.2v4.2M233.3 109.6v4.2M433.3 67.6v4.2M140 79.4v4.2M213.3 110.3v4.2M40 81.2l4.2-.7M113.3 36.8v4.2M360 74.8v4.2M426.7 87.9v4.2M393.3 57v4.2M186.7 74.9v4.2M286.7 39.5v4.2M120 107.6v4.2M33.3 97.2v4.2M320 84.1v4.2M462.8 102.8l3.9-1.7M333.3 42.6v4.2M306.7 107.1v4.1M193.3 37.6v4.1M33.3 63.5l3.9-1.6M186.7 35.5v4.2M253.3 112.7v4.1M96.4 34.1l3.6-2.2M233.3 132.4v4.1M120 63.5v4.1M80 97.4v4.2M286.7 93.4v4.1M200 66.9v4.2M97.2 64.6l2.8-3.1M13.3 87.4v4.1M86.7 72.2l3.2-2.5M10 133.1l3.3-2.4M453.3 43.9v4.1M233.3 5.2v4.1M100 104.2v4.2M340 90.5v4.1M213.3 38.1v4.1M160 112.2v4.2M233.3 101.7v4.1M226.7 111.6v4.2M6.7 82.7v4.1M322.5 27.7l4.2-.3M446.7 54.8v4.1M226.7 127v4.2M273.3 25.3v4.1M453.3 102l4.1 1M353.3 89.7v4.1M133.3 79.8v4.1M100 70.2v4.1M369.8 21.1l3.5-2.1M6.7 145.2l4-.7M160 116.4v4.1M500 80.9v4.1M186.7 28.2v4.1M253.3 89.3v4.1M433.3 44.2v4.1M460 65v4.1M213.3 91.8v4.1M206.7 112.5v4.1M326.7 86.7v4.1M346.7 113.2v4.1M220 124.7v4.1M233.3 121.4v4.1M393.3 62.9v4.1M160 28.4v4.1M173.3 54.5l3.6 2M93.3 102v4.1M100 57.4v4.1M333.3 92.9v4.1M246.7 94.7v4.1M273.3 117.5v4.1M273.3 45.8v4.1M306.7 51.3v4.1M326.7 137.4v4.1M373.3 33.3v4.1M453.3 66.3v4.1M313.3 41.1v4.1M240 99.2v4.1M300 58.2v4M153.3 67.5v4.1M46.7 93l3.2-2.5M213.3 64.7v4M173.3 58.4v4M333.3 129.3v4M380 53.1v4M320 108.3v4M340 120.8v4M466.7 60.5v4M386.7 46.1v4.1M306.7 125.4v4M66.7 105.7v4.1M93.3 37.7v4M313.3 58v4M313.3 103.6v4M102.8 45.7l3.9-1M333.3 138.6v4M180 112v4.1M273.3 127.3v4M433.3 48.3v4M313.3 111.9v4M30.6 112.6l2.7-3M46.7 82.7v4M343 35l3.7-1.6M340 116.8v4M40 113.4v4M226.7 134.4v4M266.7 117.6v4M213.3 42.2v4M226.7 45.7v4M336.7 32.1l3.3-2.2M346.7 109.2v4M486.7 97.6l3.7-1.3M266.7 131.9v4M166.7 62.6v4M266.7 11.6v4M273.3 41.8v4M380 60.6v4M346.7 92.1v4M340 108.9v4M333.3 97v4M173.3 62.4v4M320 137.2v4M413.3 66.4v4M342.7 35.8l4 .4M313.3 33.4v4M373.3 59.1v3.9M213.3 127.7v4M393.3 67v4M73.3 103.2v4M202.9 5.7l3.8-1.1M133.3 102.5v4M60 103.9v4M173.3 45.1v3.9M406.7 61.5v4M446.7 41.1v3.9M220 15.6v3.9M473.3 92v3.9M246.7 77.3v4M40 83.4l3.4-2.1M40 87.6v3.9M180 27.1v3.9M280 53.4v3.9M306.7 31.5v3.9M213.3 102.4v4M413.3 42.5v3.9M346.7 117.3v3.9M26.7 95.9v3.9M26.7 112.3v4M33.3 122.6v3.9M220 95.9v3.9M493.3 64.3v3.9M140 29.7v3.9M213.3 106.4v3.9M440 67.6v3.9M300 127.5v3.9M206.7 124v3.9M340 112.9v3.9M266.7 2.3v3.9M180 63.4v3.8M193.3 88.1v3.9M306.7 139.1v3.9M253.3 116.8v3.9M226.7 115.8v3.8M60 66.9v3.9M73.3 54v3.9M453.3 102.6l3.9.4M353.3 51.2v3.8M453.3 56.1v3.8M293.3 136.4v3.9M233.3 113.8v3.9M280 22.1v3.8M26.7 86.5v3.8M429.5 94.2h3.8M220 128.8v3.8M110.6 43.7l2.7-2.7M0 93.2v-3.8M186.7 52.9v3.9M296.2 44.2l3.8-.3M206.7 42.5v3.8M469.7 102.1l3.6-1.1M253.3 74.1v3.8M260 29.3v3.8M80 79.5v3.8M426.7 54.7v3.8M160 42.5v3.8M346.7 105.4v3.8M233.3 105.8v3.8M186.7 71.1v3.8M100 66.4v3.8M124.3 41.8l2.4-2.9M106.7 49.3v3.8M333.3 116.5v3.8M240 46.3v3.8M166.7 44.1v3.7M20 131.7v3.8M313.3 37.4v3.7M233.3 117.7v3.7M293.3 24.8v3.8M6.7 108.7v3.8M246.7 119.5v3.8M133.3 18.5l3.8-.1M486.7 105.3v3.8M200 10.3v3.8M206.7 46.3v3.8M126.7 21.7v3.8M260 78.9v3.7M26.7 78.1v3.7M86.7 75.6v3.7M300 101.9v3.7M126.7 31.5v3.7M386.7 80.5v3.8M120 48.6v3.8M330.1 28.8l3.2-1.9M333.3 101v3.7M340 124.8v3.8M26.7 108.6v3.7M373.3 53.3v3.7M246.7 63.8l3.6-.6M13.3 118.7l3-2.2M206.7 108.7v3.8M73.3 88.4v3.7M146.7 66.2v3.7M0 116.6v-3.7M260 82.6v3.7M200 114.7v3.8M426.7 36.4v3.7M366.7 90.1v3.7M340 105.2v3.7M260 117.5v3.7M453.3 95l3.5-1.2M480 77.1v3.7M373.3 49.6v3.7M56.8 53.1l3.2-1.8M373.3 26.4v3.7M13.3 73.6l3.6-.8M273.3 13.9v3.7M463.3 91.1l3.4-1.6M233.3 64v3.7M173.3 41.4v3.7M60 53.6v3.7M490.2 97l3.1-2M313.3 129.2v3.7M240 121.9v3.7M306.7 135.5v3.6M260 121.2v3.6M200 77.7v3.7M356.9 40l3.1-2.1M500 102.6v3.7M353.3 24.1v3.7M186.7 115.1v3.7M113.3 106.2v3.6M100 51.5l3-2.1M300 123.9v3.6M246.7 115.8v3.7M53.3 112.4v3.6M273.3 29.4v3.7M46.7 94.6v3.7M496.8 94.1l3.2-1.7M286.7 48.2v3.7M466.7 52.6v3.6M0 101v-3.6M166.7 14.8v3.7M106.7 61.3v3.6M260 131.6v3.6M273.3 6v3.7M300 40.2v3.7M473.3 103.9v3.6M93.3 71.9v3.7M193.3 65.3v3.6M73.3 57.9v3.6M266.7 21.2v3.7M480 63.7v3.6M206.7 81.8v3.6M460 56.4v3.6M486.7 67.5v3.6M200 58.6v3.6M240 95.6v3.6M73.3 92.1v3.6M286.7 27v3.6M346.7 38.3v3.6M166.7 47.8v3.6M93.3 44.2v3.6M484.3 83.1l2.4-2.8M6.7 139.9v3.6M340 94.6v3.6M246.7 112.3v3.5M313.3 25.2v3.6M66.7 56.2v3.6M493.3 86.5v3.5M0 124l2.4-2.7M266.7 81.6v3.6M273.3 9.7v3.5M57.2 84.9l2.8-2.2M280 34.2v3.6M226.7 1.9v3.6M346.7 67.4v3.6M169.8 52.9l3.5.5M220 113v3.5M180 31v3.6M193.3 79.8v3.6M340 128.6v3.5M206.7 52.4v3.6M406.7 76.7v3.6M280 30.6v3.6M253.3 0v3.5M180 52.9v3.5M340 101.7v3.5M166.7 30.3v3.6M213.3 51.6v3.6M173.3 54.8v3.6M246.7 91.2v3.5M353.3 108.4v3.5M260 1.2v3.6M400 76.8v3.5M373.3 22.8v3.6M60 59v3.5M93.3 61v3.5M13.3 91.5v3.5M233.3 136.5v3.6M66.7 52.7v3.5M473.3 70.1v3.5M0 109.8v-3.5M460 69.1v3.5M280 37.8v3.5M220 121.2v3.5M13.3 104.8v3.5M467.3 103.3l3.4-.7M380 110v3.5M380 57.1v3.5M500 85v3.5M393.3 35.9v3.5M389.9 41l3.4.1M340 98.2v3.5M373.3 87.4v3.5M306.7 59.9v3.4M146.7 35.8v3.5M500 71.8v3.5M400 67.3v3.5M20 101.7v3.5M53.3 86.8v3.4M53.3 68.6v3.5M246.7 128.8v3.5M373.3 46.1v3.5M373.3 90.9v3.4M326.7 45.9v3.5M226.7 108.1v3.5M73.3 75.6v3.5M6.7 128.9v3.5M160 46.3v3.4M300 62.2v3.5M106.7 45.9v3.4M146.7 23.8v3.5M0 130.8v-3.5M380 41.4v3.4M386.7 42.7v3.4M120 38v3.4M126.7 82.5v3.4M360 21.6l3.4.2M453.3 70.4v3.5M346.7 101.9v3.5M473.3 73.6v3.4M380 77.4v3.4M153.3 32v3.4M140 65.1v3.5M400 90v3.4M500 110.2v3.4M30.9 112.5l2.4-2.4M449.9 104.8l3.4.3M66.7 68.5v3.4M126.7 64.4v3.4M346.7 61.1v3.4M473.3 83.9l3.5.1M313.3 62v3.4M380 49.7v3.4M220 109.5v3.5M57.3 72.9l2.7-2.1M33.3 68.4v3.4M306.7 132.1v3.4M380 71.8v3.4M460 72.6v3.4M186.7 67.7v3.4M380 89.4l3.2 1.2M493.3 74.4v3.4M360 54.1v3.4M440 53v3.3M273.3 86.8v3.4M413.3 39.1v3.4M66.7 74.9v3.4M386.7 50.2v3.4M500 68.4v3.4M360 46.4v3.4M460 98.5v3.4M386.7 56.3v3.4M353.3 111.9v3.4M326.7 37.9v3.3M366.7 75.6v3.4M393.3 79.8v3.3M280 131.2v3.4M373.3 19l3.3 1M273.3 140.2v3.4M200 91.9v3.4M240 111.4v3.4M46.7 114.3v3.4M60 77.3v3.3M73.3 85v3.4M206.7 68.1v3.4M93.3 106.1v3.4M333.3 54v3.3M440 79.3v3.4M226.7 77.4v3.4M220 106.2v3.3M493.3 110.2v3.3M106.7 27.4l3.2-.9M360 63.8v3.3M100 41.8v3.3M286.7 60.6v3.3M196.8 71.3l3.2 1M346.7 27.5v3.3M106.7 57.9v3.4M200 88.6v3.3M53.3 116v3.3M440 61.5v3.3M426.7 67.9v3.3M120 34.7v3.3M306.7 38.3v3.3M353.3 105.1v3.3M493.3 68.2v3.3M233.3 1.9v3.3M20 78.7v3.3M286.7 63.9v3.3M240 103.3v3.3M360 43.1v3.3M313.3 125.9v3.3M146.7 114.9v3.3M253.3 120.7v3.3M246.7 132.3v3.3M364.5 34.3l2.2-2.4M393.3 93.4v3.3M380 68.6v3.2M377 32.4l3 1.2M13.3 138.3v3.2M413.3 89.8v3.3M353.3 35.3v3.3M293.3 65.5v3.2M233.3 67.7v3.2M280 41.3v3.2M373.3 68.1v3.2M226.7 131.2v3.2M353.3 93.8v3.2M133.3 28.8v3.2M146.7 32.6v3.2M93.3 68.7v3.2M246.7 87.9v3.3M200 118.5v3.2M0 123.1v-3.2M466.7 74.4v3.3M240 82v3.2M280 18.9v3.2M293.3 59.5v3.3M0 145.1v-3.2M253.3 133.3v3.2M220 88.3v3.2M280 44.5v3.3M360 57.5v3.3M406.7 39.7v3.2M66.7 93.3v3.2M133.3 65v3.2M213.3 48.4v3.2M260 4.8v3.2M493.3 104.5v3.2M340 30.8v3.3M346.7 121.2v3.2M406.7 72.6v3.3M253.3 45.2v3.2M26.7 122.3v3.2M466.7 95.6v3.2M353.3 115.3v3.2M6.7 86.8v3.2M386.7 62.6v3.2M246.7 44.8v3.2M186.7 32.3v3.2M380 80.8v3.2M373.3 19.6v3.2M260 77.8l2.8-1.5M0 119.9v-3.2M300 32.4v3.2M353.3 45.6v3.2M220 74.3v3.2M280 134.6v3.2M293.3 128.4v3.2M133.3 32v3.2M400 73.6v3.2M273.3 2.9v3.1M166.7 40.9v3.2M240 86.3v3.2M240 130.6v3.2M26.7 91.6v3.2M213.3 68.7v3.2M0 96.3v-3.1M140 26.5v3.2M46.7 111.2v3.1M426.7 84.7v3.2M80 59.8v3.2M13.3 77.5v3.1M253.3 130.1v3.2M366.7 20.9l3.1-.1M213.3 119.5v3.2M233.3 93.7v3.2M86.7 66.1v3.1M200 48.2v3.1M493.3 99.9v3.2M446.7 71.2v3.1M203.6 75.3l3.1.3M106.7 27.6l2.9-1M46.7 72v3.2M53.3 109.2v3.2M360 40v3.1M80 42.6v3.1M498.3 65.8l1.7-2.6M313.3 132.9v3.1M480 82l2.9-1.1M400 56.6v3.1M366.7 93.8v3.1M326.7 55.1l2.2 2.1M66.7 78.3v3.1M86.7 42.3v3.1M320 33.6v3.2M40 61.4v3.1M53.3 96.1v3.1M186.7 118.8v3.1M313.3 50.5v3.1M0 139v-3.1M40 91.5v3.1M360 85.7v3.1M220 77.5v3M246.7 135.6v3M73.3 67.6v3.1M193.3 71.7v3.1M400 80.3l2.5 1.8M260 137.9v3.1M306.7 45.6l2.6 1.6M220 49.2v3.1M386.7 92.9v3.1M33.3 115.3v3.1M206.7 116.6v3M466.7 104v3.1M80 76.4v3.1M53.3 63.4v3M386.7 89.8v3.1M0 112.9v-3.1M100 63.3v3.1M360 60.8v3M293.3 109.2v3.1M240 92.6v3M437.2 82.1l2.8 1.3M60 100.9v3M426.7 71.2v3M126.7 79.4v3.1M433.3 62.3v3M273.3 137.2v3M180 60.3v3.1M273.3 22.3v3M73.3 82v3M466.7 92.6v3M388.4 39.5l2.8 1.1M263.6 1.8l3.1.1M280 137.8v3M353.3 102v3.1M306.7 115.6v3.1M446.7 51.8v3M270.4 56l2.9-.7M73.3 111.7v3M373.3 96.2h3.1M326.7 50.7v3M273.3 131.3v3M477 120l3 .4M233.3 79.4v3M233.3 73.6v3M40 98.4v3M260 26.2v3.1M320 46.8v3M220 132.6v3M360 49.8v3M366.7 87.1v3M500 65.4v3M340 34.1v3M86.7 69.2v3M366.7 25.8v3M320 119.4v3M53.3 106.2v3M500 98.3v3M393.3 44.5v3M20 105.2v3M493.3 61.3v3M433.3 89.7v3M93.3 55.3v3M20 75.8v2.9M300 133.7v3M66.7 109.8v3M326.7 112.9v3M130.5 20.4l2.8-.9M353.3 20.4l2.7 1.3M31.2 93l2.1-2M153.3 24.4v3M240 64.4v2.9M473.3 102.5l3 .2M220 46.3v2.9M300 49v2.9M366.7 30.7l2.9.4M350.5 39.2l2.8 1M346.7 134.6v3M386.7 84.3l2.7 1M140 17.6l2.9-.4M420 66.9v2.9M426.7 80.2v2.9M60 74.3v3M393.3 49.7v3M286.7 129.5v2.9M346.7 96.1v2.9M326.7 110v2.9M386.7 34.1v2.9M483.9 60.3l2.8.9M246.7 81.3v2.9M386.7 73.1v3M313.3 45.2v2.9M473.3 95.9v3M353.3 21l2.9.7M466.7 77.7v2.9M453.3 73.9v2.9M386.7 86.9v2.9M337.8 32.8l2.2-2M326.7 57.9v2.9M346.7 99v2.9M46.7 108.3v2.9M333.3 59.6v2.9M306.7 35.4v2.9M466.7 89.5l2.8-.7M440 100.1l2.5 1.4M380 94.5v3M360 67.1v3M426.7 47.5v2.9M26.7 116.6v2.9M273.3 52.4v2.9M20 128.8v2.9M420 61.5v2.9M486.7 81.1v2.9M460 76v2.9M33.3 103.3v2.9M386.7 59.7v2.9M420 45.7v2.9M440 94.3v2.9M120 31.8v2.9M453.3 95.5l2.7-1.1M106.7 27.8v2.9M500 95.4v2.9M413.3 50.9v2.9M333.3 113.6v2.9M213.3 18v2.9M357.1 40.1l2.9-.3M20 108.2v2.9M493.3 113.5v2.9M60 88.6v2.9M366.7 84.2v2.9M246.7 65.3v2.9M46.7 117.7v2.9M380 107.1v2.9M493.3 71.5v2.9M93.3 51.9v2.8M470.6 103.2l2.7-.7M20 94.7v2.8M360 31.7v2.8M173.3 16.3v2.8M497.9 57.6l2.1-1.9M440 102.9l2.5 1.4M53.3 55.7v2.8M253.3 82.6v2.8M60 93.7v2.8M373.3 71.3v2.9M157.2 49.8l2.8.5M480 67.3v2.9M133.3 40v2.9M373.3 76.5v2.8M353.3 63.5v2.8M320 52.6v2.8M340 24.6v2.8M317.4 51.1l2.6 1M466.7 71.6v2.8M320 129.5v2.8M273.3 134.3v2.9M463.9 103.2l2.8-.6M233.3 76.6v2.8M253.3 136.5v2.8M443.9 101.9l2.8-.7M240 119.1v2.8M46.7 105.5v2.8M326.7 27.4v2.8M146.7 21.1v2.7M206.7 5.7v2.8M300 37.5v2.7M206.7 65.3v2.8M360 107.3v2.8M106.7 53.1v2.8M340 61.6v2.8M386.7 53.6v2.7M33.3 110.1l2.4-1.5M486.7 61.6l2.7-.2M453.3 97.6v2.7M33.3 77.7v2.7M20 82v2.8M126.7 109.8v2.8M193.3 11.6v2.8M440 64.8v2.8M60 80.6l2.3-1.5M246.7 84.2v2.8M260 135.2v2.7M486.7 77.6v2.7M13.3 123.6v2.8M413.3 63.6v2.8M286.7 18.1v2.7M66.7 89.4v2.7M286.7 67.2v2.7M86.7 72.9v2.7M213.3 131.7v2.7M33.3 65.7v2.7M453.3 53.3v2.8M240 71.5v2.7M180 13.6v2.7M73.3 79.1v2.7M6.7 137.1v2.8M80 101.6v2.7M346.7 22.4v2.7M358 38.7l2-1.9M393.3 41.1v2.7M86.7 100.3v2.7M457.4 111.9l2.6.9M337.3 34.2l2.7-.1M293.3 62.8v2.7M266.7 29.3v2.7M353.3 118.5v2.7M6.7 126.2v2.7M406.7 56.2v2.7M117.5 43.5l2.5-.9M454.7 94.5l2.5-1M373.3 103.5v2.7M46.7 75.2v2.7M340 132.1v2.7M133.3 24.6v2.7M440 91.6v2.7M106.7 30.7v2.7M86.7 38l2.6-.5M180 9.5v2.7M420 69.8v2.7M53.3 103.5v2.7M40 110.7v2.7M493.3 90v2.7M60 119.3v2.7M213.3 76.9v2.7M226.7 74.8v2.6M380 97.5v2.6M320 26.2v2.7M46.7 120.6v2.6M93.3 35v2.7M40 84.9v2.7M400 62.3v2.7M26.7 75.4v2.7M380 90.6v2.6M160 14.7v2.6M366.7 56v2.7M80 109.8v2.7M366.7 72.9v2.7M493.3 68.2l2.7.1M146.7 18.4v2.7M100 54.7v2.7M46.7 102.8v2.7M66.7 96.5v2.6M286.7 134.7v2.6M120 24.2v2.7M480 70.2v2.6M393.3 74.9v2.6M26.7 70.5v2.6M333.3 133.3v2.7M286.7 35.5v2.6M373.3 63v2.7M200 75.1v2.6M40 108.1v2.6M460 78.9v2.6M333.3 136v2.6M470.8 117.8l2.5.8M53.3 86.2l2.3-1.3M360 93.3v2.6M406.7 58.9v2.6M124.9 41.6l1.8-2M293.3 45.6v2.7M406.7 80.3v2.6M446.7 68.5v2.7M246.7 74.7v2.6M400 59.7v2.6M233.3 70.9v2.7M453.3 76.8v2.6M446.7 74.3v2.6M440 84.6v2.6M333.3 51.4v2.6M306.7 129.4v2.7M140 23.9v2.6M20 70.8v2.6M426.7 58.5v2.6M346.7 124.4v2.6M140 33.6v2.6M293.3 133.8v2.6M486.7 100.4v2.6M386.7 77.9v2.6M406.7 37.1v2.6M433.3 80.4v2.6M166.7 20v2.5M300 115.5v2.6M60 96.5v2.6M486.7 75.1l2.5.1M106.7 45.1l2.5-.1M213.3 71.9v2.6M473.3 60.5v2.6M193.3 58.3v2.6M80 72.9v2.5M433.3 87.2v2.5M360 102.2v2.5M86.7 36.8h2.5M226.7 119.6v2.6M360 104.7v2.6M253.3 61.4l2.4-.9M226.7 80.8v2.5M333.3 46.8v2.6M380 100.1v2.6M406.7 87.8v2.5M393.3 83.4v2.5M480 112.4v2.5M6.7 146.2v2.6M100 52.2v2.5M366.7 70.4v2.5M486.7 111.9v2.5M40 78.7v2.5M126.7 35.2v2.5M20 123.6v2.6M140 38.2v2.6M480 84.3v2.5M93.3 41.7v2.5M253.3 77.9v2.5M0 84.3v-2.5M273.3 49.9v2.5M220 2.7v2.5M220 59.8v2.5M233.3 82.4v2.5M140 21.4v2.5M66.7 50.2v2.5M6.7 132.4v2.5M286.7 137.3v2.6M26.7 66.1v2.5M373.3 115.6v2.5M433.3 75v2.5M246.7 61.3v2.5M373.3 79.3v2.5M400 51.1v2.6M353.3 99.5v2.5M66.7 112.8v2.5M386.7 96v2.5M420 64.4v2.5M340 27.4v2.5M193.3 119.3v2.4M233.3 44.9v2.5M20 97.5l2.1-1.2M400 39.4v2.5M300 44.9v2.5M80 66.3v2.5M353.3 97v2.5M366.7 109.3v2.5M240 90.1v2.5M500 115.9v2.5M13.3 80.6v2.5M233.3 129.9v2.5M353.3 66.3v2.5M420 57.3v2.5M173.3 106v2.4M133.3 37.6v2.4M220 71.8v2.5M346.7 45.1v2.4M33.3 63.8l2.3-1M113.3 53.3v2.5M264.2 1.7l2.5-.2M86.7 39.8v2.5M213.3 74.5v2.4M406.7 66.8v2.4M413.3 46.4v2.5M426.7 93.8v2.5M486.7 63.3v2.4M85 38.6l1.7-1.8M266.7 138.3v2.4M293.3 48.3v2.4M380 90.6l2.3.7M433.3 94.2v2.4M466.7 69.2v2.4M373.3 65.7v2.4M286.7 51.9v2.4M240 69.1v2.4M460 91.6v2.4M0 141.9v-2.5M466.7 80.6v2.4M440 71.5v2.4M320 141.2v2.4M13.3 128.3v2.4M266.7 135.9v2.4M93.3 66.3v2.4M140 113.7v2.4M73.3 61.5v2.4M180 57.9v2.4M440 99.8l2.1 1.1M380 66.2v2.4M186.7 65.4v2.3M500 118.4v2.4M466.7 88.5l2.3.2M366.7 103.8v2.3M253.3 61.4v2.4M446.7 76.9v2.4M426.7 63.2v2.4M33.3 80.4v2.4M393.3 33.5v2.4M53.3 93.7v2.4M233.3 91.4v2.3M0 89.4v-2.4M186.7 13.5v2.3M346.7 41.9v2.3M66.7 86.1v2.4M280 5.5v2.4M500 51v2.4M386.7 100.4v2.4M280 49.4v2.3M206.7 50.1v2.3M473.3 90.5l2.3-.8M86.7 53v2.3M400 65v2.3M453.3 92.7v2.3M353.3 48.8v2.4M60 86.2v2.4M446.7 66.2v2.3M180 16.3v2.4M280 13.7v2.4M346.7 25.1v2.4M393.3 54.6v2.4M353.3 21.8v2.3M460 96.2v2.3M360 110.1v2.3M33.3 88.6v2.4M373.3 74.2v2.3M0 149v-2.3M300 131.4v2.3M193.3 116.9v2.4M146.7 44.6v2.3M346.7 30.8v2.3M266.7 140.7v2.3M186.7 9.1v2.3M473.3 79.3v2.3M273.3 69.6v2.3M340 134.8v2.3M353.3 61.2v2.3M26.7 73.1v2.3M80 55.8v2.3M473.3 86.2v2.3M473.3 54.9v2.3M226.7 91.1v2.3M486.7 109.1v2.3M73.3 109.4v2.3M286.7 132.4v2.3M60 72.1v2.2M373.3 83.2v2.3M25 109.2l1.7-1.6M473.3 77v2.3M360 34.5v2.3M380 104.8v2.3M473.3 101.4l2.3-.3M480 74.9v2.2M40 102.8v2.2M46.7 57.6l2.1-.9M413.3 55.9v2.3M440 73.9v2.3M40 75.3v2.3M13.3 132.9v2.3M280 128.9v2.3M333.3 57.3v2.3M320 55.4v2.3M360 112.4v2.3M360 114.7v2.2M66.7 83.9v2.2M200 121.7v2.3M346.7 58.8v2.3M271.1 57.2h2.2M206.7 73.3v2.3M280 140.8v2.2M426.7 65.6v2.3M353.3 41.4v2.2M473.3 81.6v2.3M453.3 79.4v2.2M106.7 45.2l2.2-.1M93.3 48v2.2M433.3 65.3v2.3M46.7 98.8v2.3M73.3 63.9v2.2M193.3 8.5v2.2M260 54.5v2.2M393.3 85.9v2.3M160 49.7l2 1M366.7 58.7v2.2M484.5 103.2l2.2-.2M200 8.1v2.2M306.7 42.8v2.3M0 127.3v-2.2M346.7 129v2.2M393.3 77.5v2.3M206.7 79.6v2.2M226.7 83.3v2.2M53.3 101.3v2.2M420 55.1v2.2M213.3 46.2v2.2M486.7 93.8v2.2M60 91.5v2.2M0 87v-2.2M286.7 139.9v2.1M13.3 101.7v2.2M373.3 113.4v2.2M293.3 131.6v2.2M500 93.3v2.1M360 100v2.2M40 81.2v2.2M413.3 61.5v2.1M53.3 66.4v2.2M66.7 66.3v2.2M31.4 64.5l1.9-1M326.7 55.7v2.2M200 41v2.2M286.7 43.7v2.1M413.3 53.8v2.1M380 102.7v2.1M73.3 107.2v2.2M266.7 54.4v2.1M386.7 71v2.1M366.7 119.5v2.1M360 123.1v2.2M413.3 98v2.1M280 58.7v2.2M0 81.8v-2.2M253.3 80.4v2.2M486.7 73v2.1M113.3 41v2.2M13.3 83.1v2.2M273.3 72.1v2.2M460 107.2v2.1M491.6 60.3l1.7-1.2M393.3 71v2.1M366.7 68.3v2.1M377.9 84.7l2.1.5M46.7 123.2v2.2M6.7 114v2.1M46.7 69.9v2.1M213.3 84.8v2.1M40 124.8v2.1M320 49.8v2.1M433.3 85v2.2M60 117.2v2.1M380 75.2v2.2M360 121v2.1M353.3 127.2v2.1M400 37.2v2.2M440 97.2v2.1M460 105v2.2M100 46.1v2.1M53.3 99.2v2.1M466.7 98.8v2.1M466.7 111.8v2.1M500 53.5v2.2M353.3 121.2v2.1M466.7 50.5v2.1M420 78.3v2.1M480 94.4v2.1M353.3 125.1v2.1M293.3 28.6v2.1M13.3 85.3v2.1M426.7 61.1v2.1M186.7 61.5v2.1M280 60.9v2.1M13.3 119.7v2.1M86.7 50.9v2.1M313.3 140.8v2.1M360 29.6v2.1M60 84.2v2M391.6 42.7l1.7 1.1M133.3 111v2.1M460 81.5v2.1M413.3 71.3v2.1M26.7 105.5v2.1M480 58.4v2.1M413.3 76.3v2.1M246.7 42.7v2.1M273.3 58.9v2.1M373.3 99.7v2M360 95.9v2.1M233.3 89.3v2.1M480 61.7v2M113.3 55.8v2M360 116.9v2.1M53.3 72.1v2.1M406.7 70.6v2M360 125.3v2.1M353.3 71.4v2.1M106.7 25.3v2.1M106.7 55.9v2M86.7 38.2l2-.4M460 47.7v2M353.3 129.3v2.1M326.7 120.7v2.1M493.3 96v2.1M80 68.8v2M346.7 36.2v2.1M126.7 27.4v2.1M366.7 117.5v2M480 72.8v2.1M140 36.2v2M373.3 57v2.1M340 49.7v2M440 103.4v2.1M360 119v2M366.7 111.8v2M360 98v2M493.3 117.5v2M333.3 49.4v2M346.7 131.2v2M413.3 48.9v2M480 96.5v2M333.3 26.9v2M346.7 127v2M340 37.1v2M326.7 141.5v2M20 73.8v2M253.3 87.3v2M220 80.5v2M366.7 96.9v2M393.3 88.2v2M366.7 115.5v2M360 24.6v2M353.3 43.6v2M473.3 88.5v2M406.7 51v2M66.7 71.9v2M66.7 65.4l1.9-.5M393.3 52.7v1.9M86.7 56.4v1.9M125.1 42.2l1.6-1.3M486.7 114.4v2M386.7 98.5v1.9M240 138.5v1.9M373.3 106.2v2M133.3 42.9v1.9M440 100.3l1.7 1M373.3 111.5v1.9M433.3 73v2M260 75.8v2M273.3 55.3v1.9M173.3 11v1.9M293.3 140.3v1.9M6.7 105.7v1.9M80 63v1.9M426.7 96.3v1.9M366.7 23.9v1.9M53.3 90.2v2M46.7 68v1.9M6.7 124.2v1.9M240 74.2v2M386.7 84.3v1.9M20 126.2v1.9M500 88.5v1.9M80 70.9v2M500 113.6v1.9M473.3 68.1v2M373.3 85.5v1.9M393.3 91.5v1.9M133.3 20.7v1.9M440 87.2v1.9M466.7 83v1.9M493.3 55.3v1.9M40 94.6v1.9M20 120v1.9M53.3 123.7v1.9M0 132.7v-1.9M400 86.9v1.9M13.3 126.4v1.9M493.3 57.2v1.9M13.3 141.5v1.9M73.3 73.8v1.8M113.3 43.3h1.9M306.7 25.4v1.8M460 91.1l1.9.2M6.7 93.3v1.9M366.7 28.8v1.9M480 114.9v1.9M473.3 114.3v1.9M206.7 71.5v1.8M253.3 85.4v1.9M386.7 76.1v1.8M13.3 121.8v1.8M420 80.4v1.9M373.3 94.3v1.9M420 53.2v1.9M400 82v1.9M493.3 98.1v1.8M486.7 71.1v1.9M300 35.6v1.9M13.3 135.2v1.8M380 20.3v1.9M40 96.5v1.9M6.7 90v1.9M226.7 59.6v1.9M460 94v1.8M453.3 103.2v1.9M86.7 60.8v1.8M26.7 68.6v1.9M100 61.5v1.8M360 70.1v1.8M446.7 104.1v1.8M173.3 12.9v1.8M360 71.9v1.8M33.3 113.5v1.8M373.3 109.7v1.8M118.7 42.7l1.3-1.3M360 37.9v1.9M33.3 126.5v1.9M320 143.6v1.8M440 76.2v1.8M93.3 64.5v1.8M40 84.3l1.5-1M486.7 65.7v1.8M406.7 53v1.8M413.3 59.7v1.8M446.7 82v1.8M473.3 83.9v1.7M366.7 121.6v1.8M444.9 102.3l1.8-.1M480 86.8v1.8M366.7 102v1.8M393.3 73.1v1.8M471.6 102.7l1.7-.4M153.3 14.7v1.8M366.7 60.9v1.8M313.3 48.7v1.8M0 134.5v-1.8M26.7 133v1.8M240 67.3v1.8M20 135.5v1.7M486.7 117.8v1.8M13.3 131.1v1.8M353.3 123.3v1.8M33.3 107.9v1.7M373.3 31.5v1.8M346.7 33.4v1.8M86.7 62.6v1.8M46.7 101.1v1.7M493.3 121.9v1.7M360 22.9v1.7M100 48.2v1.7M293.3 37.2v1.8M413.3 74.5v1.8M426.7 75.3v1.8M466.7 108.5v1.7M40 106.3v1.8M20 121.9v1.7M346.7 65.7v1.7M393.3 61.2v1.7M120 52.4v1.7M420 86.7v1.8M186.7 63.6v1.8M433.3 77.5v1.7M393.3 39.4v1.7M293.3 23.1v1.7M91.8 35.5l1.5-.8M73.3 46v1.7M33.3 111.8v1.7M6.7 116.1v1.7M386.7 22.5v1.7M446.7 105.9v1.7M440 89.9v1.7M353.3 32.6v1.7M193.3 70v1.7M13.3 73.6v1.7M126.7 25.5v1.7M286.7 110.7v1.7M60 81v1.7M353.3 30.5v1.7M40 126.9v1.7M86.7 64.4v1.7M420 59.8v1.7M400 35.5v1.7M443.2 101.5l1.7.1M486.7 103.6v1.7M366.7 49.9v1.7M33.3 128.7v1.7M440 39.6v1.7M473.3 112.6v1.7M66.7 81.4v1.7M60 57.3v1.7M446.7 88.6v1.7M46.7 93v1.6M480 100.6v1.7M473.3 58.9v1.6M160 17.3v1.7M400 83.9v1.6M366.7 107.7v1.6M447.1 102.8l1.7-.2M413.3 78.4v1.6M240 44.7v1.6M340 138v1.7M453.3 87v1.7M220 82.5v1.7M33.3 106.2v1.7M358.9 38.3l1.1-1.2M473.3 57.2v1.7M233.3 84.9v1.6M280 51.7v1.7M280 47.8v1.6M486.7 96v1.6M0 146.7v-1.6M226.7 73.1v1.7M486.7 76v1.6M366.7 113.8v1.7M33.3 87v1.6M406.7 48.1v1.6M20 112.6v1.6M33.3 64.1v1.6M13.3 75.9v1.6M400 53.7v1.6M240 1.3v1.6M373.3 96.2v1.6M46.7 125.4v1.6M466.7 110.2v1.6M500 120.8v1.6M486.7 98.8v1.6M406.7 90.3v1.6M353.3 27.8v1.6M453.3 106.4v1.6M300 47.4v1.6M126.7 52.4v1.6M66.7 115.3v1.5M280 16.1v1.5M413.3 88.2v1.6M433.3 83.5v1.5M353.3 131.4v1.5M153.3 17.7v1.5M205.1 76.4l1.6.2M320 117.9v1.5M493.3 119.5v1.6M500 107.5v1.5M426.7 83.1v1.6M353.3 38.6v1.6M20 97.5v1.6M366.7 106.1v1.6M486.7 120.7v1.5M360 28v1.6M380 64.6v1.6M460 83.6v1.6M400 48.7v1.5M53.3 92.2v1.5M473.3 117v1.6M345.2 35.7l1.5-.5M26.7 120.7v1.6M480 103.5v1.5M133.3 27.3v1.5M393.3 48.2v1.5M20 138.7v1.6M380 86.6v1.5M180 56.4v1.5M246.7 138.6v1.6M453.3 81.6v1.6M120 23.7l1.5-.4M173.3 14.7v1.6M233.3 86.5v1.6M280 68.9v1.5M73.3 44.5v1.5M406.7 85.8v1.5M20 111.1v1.5M293.3 50.7v1.5M340 51.7v1.5M460 109.3v1.5M73.3 66.1v1.5M353.3 59.7v1.5M366.7 20.9v1.5M45.3 58.2l1.4-.6M446.7 79.3v1.5M453.3 89.5v1.5M293.3 44.1v1.5M260 53v1.5M20 137.2v1.5M493.3 92.7v1.5M373.3 108.2v1.5M446.7 91.5v1.4M366.7 37.1v1.5M500 63.9v1.5M400 70.8v1.5M413.3 85.8v1.4M166.7 18.5v1.5M466.7 114v1.5M253.3 139.3v1.5M473.3 111.1v1.5M6.7 112.5v1.5M226.7 89.6v1.5M366.7 22.4v1.5M473.3 108.2v1.5M473.3 109.7v1.4M100 51l1.4-.5M200 6.6v1.5M446.7 87.2v1.4M425.3 91.6l1.4.5M40 128.6v1.5M352.2 39.5l1.1-.9M426.7 77.1v1.4M433.3 92.7v1.5M273.3 57.2v1.5M246.7 63.8v1.5M413.3 58.2v1.5M340 39.1v1.4M6.7 91.9v1.4M213.3 79.6v1.5M446.7 83.8v1.4M433.3 99v1.4M420 90.3v1.5M366.7 31.6l1.4-.1M6.7 81.2v1.5M280 57.3v1.4M93.3 50.2v1.5M373.3 30.1v1.4M420 73.7v1.4M353.3 68.8v1.4M466.7 84.9v1.4M486.7 76l1.3.3M33.3 101.9v1.4M166.7 13.4v1.4M86.7 58.3v1.4M93.3 59.6v1.4M493.3 107.7v1.4M346.7 133.2v1.4M400 85.5v1.4M466.7 107.1v1.4M286.7 45.8v1.4M452 102.2l1.3-.3M73.3 47.7v1.4M146.7 17v1.4M460 85.2v1.4M80 64.9v1.4M461.2 91.2h1.3M286.7 38.1v1.4M26.7 130.5v1.4M400 80.3v1.3M440 78v1.3M126.7 39.6v1.3M180 12.2v1.4M253.3 72.7v1.4M286.7 20.8v1.4M220 86.9v1.4M360 127.4v1.3M266.7 73.2v1.3M40 101.4v1.4M493.3 103.1v1.4M272.1 72.3l1.2-.4M406.7 69.2v1.4M406.7 84.4v1.4M393.3 90.2v1.3M33.3 130.4v1.3M453.3 43.9l1.2.7M73.3 70.8v1.3M20 101.5l1-.8M360 52.8v1.3M453.3 84.5v1.3M333.3 26.5l1.4-.1M480 118.1v1.4M406.7 49.7v1.3M326.7 49.4v1.3M460 88.6v1.3M166.7 51.4v1.3M480 116.8v1.3M326.7 53.7v1.4M373.3 81.8v1.4M400 72.3v1.3M332.3 29.7l1-.8M226.7 88.3v1.3M20 100.2v1.3M433.3 37.8v1.3M6.7 135.8v1.3M406.7 65.5v1.3M173.3 19.1v1.3M400 55.3v1.3M40 105v1.3M26.7 90.3v1.3M453.3 83.2v1.3M33.3 110.5v1.3M453.3 105.1v1.3M220 2.3l1.2.3M33.3 131.7v1.3M446.7 99.7v1.3M93.3 58.3v1.3M60 70.8v1.3M486.7 116.6v1.2M493.3 60l1.3-.3M446.7 102.8v1.3M433.3 71.8v1.2M13.3 137v1.3M500 56.3v1.2M480 83v1.3M80 40.3v1.3M453.3 85.8v1.2M200 71.1v1.2M253.3 60.1v1.3M460 111.5v1.3M366.7 99.6v1.3M380 88.1v1.3M433.3 97.8v1.2M60 82.7v1.2M233.3 88.1v1.2M153.3 47.4v1.3M6.7 77.8v1.3M446.7 80.8v1.2M200 72.3v1.3M453.3 108.4v1.2M353.3 40.2v1.2M306.7 41.6v1.2M380 84v1.2M133.3 36.3v1.3M280 17.6v1.3M26.7 119.5v1.2M300 31.2v1.2M480 110.2v1.2M438.8 99.2l1.2.1M480 102.3v1.2M186.7 11.4v1.2M286.7 12.4v1.2M53.3 54.5v1.2M500 106.3v1.2M400 88.8v1.2M73.3 81.8l1-.6M420 72.5v1.2M86.7 36.8v1.2M373.3 97.8l1.2-.1M340 23.4v1.2M46.7 91.8v1.2M380 89.4v1.2M480 80.8v1.2M453.3 100.3v1.2M126.7 29.5v1.1M420 76.3v1.1M466.7 89.5v1.1M226.7 85.5v1.2M446.7 90.3v1.2M153.3 16.5v1.2M126.7 37.7v1.2M353.3 70.2v1.2M465.5 113.6l1.2.3M26.7 131.9v1.1M420 75.1v1.2M118.9 24.1l1.1-.4M486.7 62.1v1.2M66.7 92.1v1.2M460 89.9v1.2M466.7 86.3v1.2M413.3 73.4v1.1M6.7 80.1v1.1M380 34.4v1.1M158.9 50l1.1-.3M112.6 25.4l.7-.9M440 101.8v1.1M320 52.1l.7.8M480 60.5v1.2M500 109v1.2M460 103.1v1.1M193.3 68.9v1.1M60 99.1v1.1M53.3 85.1v1.1M133.3 35.2v1.1M120 41.4v1.2M473.3 99.5v1.1M333.3 28.9v1.2M213.3 81.1v1.1M353.3 29.4v1.1M406.7 83.3v1.1M346.7 64.5v1.2M20 99.1v1.1M366.7 100.9v1.1M493.3 109.1v1.1M140 19.6v1.1M406.7 55.1v1.1M20 118.9v1.1M399 81.9l1-.3M125.6 42.1l1.1-.2M240 85.2v1.1M460 86.6v1M13.3 108.3v1M126.7 20.8l1-.1M500 122.4v1.1M133.3 22.6v1.1M33.3 91v1M426.7 74.2v1.1M66.7 73.9v1M213.3 83.7v1.1M480 99.5v1.1M500 91.3v1.1M100 49.9v1.1M40 60.4v1M40 77.6v1.1M6.7 145.2v1M360 73.7v1.1M20 70.7l.9-.5M173.3 53.4v1.1M380 32.6v1M0 151v-1M486.7 119.6v1.1M73.3 72.1v1M86.7 55.3v1.1M466.7 90.6v1.1M206.7 75.6v1M0 97.4v-1.1M133.3 18.5v1M373.3 102.5v1M86.7 59.7v1.1M480 82v1M320 52.1l.7.8M60 51.9v1M100 31.2l1 .1M400 47.7v1M293.3 22.4l.6.8M493.3 95v1M213.3 4.1v1M346.7 35.2v1M440 100.7v1.1M480 98.5v1M320 45.8v1M426.7 78.5v1M373.3 98.7v1M353.3 34.3v1M6.7 79.1v1M80 75.4v1M80 58.8v1M413.3 87.2v1M200 74.1v1M286.7 47.2v1M40 123.8v1M120 22.7v1M246.7 87v.9M360 26.6v1M460 87.6v1M13.3 118.7v1M80 41.7v.9M313.3 142.9v1M453.3 96.3v1M0 150v-1M466.7 87.5v1M340 29.9v.9M400 27.6v.9M120 42.6v.9M26.7 134.8v1M446.7 101.2v1M105.8 44.4l.9-.4M126.7 40.9v1M226.7 86.7v1M413.3 70.4v.9M480 119.5v.9M300 24.8v.9M380 85.7v.9M366.7 30.7v.9M100 45.1v1M26.7 95v.9M366.7 49v.9M220 86v.9M40 83.4v.9M140 18.7v.9M0 135.4v-.9M493.3 59.1v.9M460 101.9v.9M6.7 143.5v.9M400 50.2v.9M340 137.1v.9M326.7 143.5v.9M206.7 4.6v.9M500 92.4v.9M293.3 36.3v.9M206.7 78.7v.9M420 77.4v.9M53.3 74.2v.8M500 90.4v.9M66.7 65.4v.9M220 84.2v.9M466.7 91.7v.9M380 93.3v.9M186.7 12.6v.9M106.1 28l.6-.6M453.3 91v.8M446.7 98v.8M86.7 38.2v.9M193.3 10.7v.9M286.7 54.3v.9M6.7 77v.8M126.7 20.9v.8M126.7 41.9l.8.3M473.3 116.2v.8M0 124v-.9M446.7 98.8v.9M66.7 88.5v.9M346.7 44.2v.9M360 22v.9M493.3 60.5v.8M406.7 75.9v.8M92.7 35.4l.6-.6M126.7 30.6v.9M366.1 33.3l.6-.7M453.3 91.8v.9M480 111.6v.8M446.7 97.6h.8M360 37.1v.8M420 89.5v.8M460 104.2v.8M493.3 116.7v.8M380 35.5v.8M473.3 91.2v.8M466.7 88.5v.8M353.3 21v.8M446.7 86.4v.8M466.7 101.8v.8M393.3 25.4v.8M486.7 75.1v.9M6.7 144.4v.8M100 31.9v.8M473.3 85.6l.8.1M220 2.6h.8M306.7 46.2v.8M380 93.2l.6-.5M406.7 30.7v.7M440 89.1v.8M493.3 77.8v.8M66.7 83.1v.8M86.7 39.1v.7M433.3 97v.8M426.7 93.1v.7M473.3 103.1v.8M366.7 31.9v.7M100 31.2v.7M493.3 94.2v.8M493.3 121.1v.8M453.3 95.5v.8M140 17.6v.7M46.7 57.7v.8M366.7 98.9v.7M40 123v.8M373.3 101.7v.8M386.7 37v.7M213.3 3.4v.7M380 33.6v.8M433.3 79.2v.8M80 58.1v.7M386.7 86.2l.6.3M486.7 80.3v.8M260 77.8v.7M0 125.1v-.7M13.3 104v.8M466.7 101.1v.7M366.7 79v.7M466.7 102.6v.7M20 128.1v.7M200 5.9v.7M146.7 15.6v.8M460 110.8v.7M100 51.5v.7M359.3 39.8h.7M133.3 20v.7M386.7 86.2v.7M393.3 47.5v.7M6.7 135.1v.7M332.7 30.4l.6-.3M60 52.9v.7M473.3 90.5v.7M6.7 107.6v.7M266.7 53.7v.7M500 63.2v.7M293.3 22.4v.7M126.7 38.9v.7M140 20.7v.7M500 123.5v.7M486.7 98.1v.7M500 102v.6M426.7 79.5v.7M106.7 45.2v.7M440 83.9v.7M440 82.7v.7M473.3 107.5v.7M193.3 7.8v.7M446.7 85.7v.7M180 18.7v.6M60 100.2v.7M146.7 16.4v.6M486.7 103v.6M413.3 85.1v.7M273.3 13.2v.7M466.7 103.3v.7M213.3 82.2v.6M240 89.5v.6M393.3 43.8v.7M360 36.8l.6-.2M420 88.9v.6M213.3 83v.7M500 55.7v.6M226.7 87.7v.6M86.7 72.2v.7M453.3 88.8v.7M373.3 97.8v.6M326.7 55.1v.6M300 44.3v.6M133.3 23.7v.6M500 101.3v.7M113.3 24.5v.6M93.3 47.8l.6-.1M73.3 73.1v.7M446.7 102.7l.6.1M313.3 48.1v.6M206.7 77.2v.6M473.3 102.5v.6M473.3 98.9v.6M60 51.3v.6M26.7 108v.6M40 84.3v.6M260 141v.6M220 85.1v.6M206.7 76.6v.6M306.7 45.6v.6M373.3 19v.6M433.3 100.4v.6M46.7 98.3v.5M266.7 72.6v.6M160 49.7v.6M93.3 54.7v.6M353.3 20.4v.6M486.7 61.6v.5M306.7 45.1v.5M473.3 85.6v.6M46.7 77.9v.5M13 109.7l.3-.4M206.7 77.8v.6M446.7 102.2v.5M200 73.6v.5M333.3 30.1v.6M32.9 92.3l.4-.3M86.2 38.3l.5-.3M33.3 92.1v.6M473.3 118.6v.5M440 102.9v.5M33.3 101.4v.5M486.7 111.4v.5M300 142v.6M453.3 95v.5M460 112.8v.5M453.3 102v.6M100 51v.5M133.3 19.5v.5M160 14.1v.6M406.7 87.3v.5M0 135.9v-.5M420 96.9v.5M473.3 101.4v.5M493.3 60v.5M306.7 143v.5M20 140.3v.4M13.3 103.9l.5-.2M460 91.1v.5M473.3 100.6v.4M0 84.8v-.5M13 104.3l.3-.4M433.3 83v.5M473.3 101.9v.4M0 139.4v-.4M453.3 108v.4M333.3 26.5v.4M486.7 97.6v.5M106.7 44.7v.4M433.3 80v.4M446.7 85.2v.5M246.7 1.1v.4M320 52.1v.5M406.7 82.9v.4M440 100.3v.4M266.7 1.9v.4M500 62.8v.4M360 21.6v.4M453.3 102.8v.4M380 85.2v.5M53.3 86.3v.5M13.3 130.7v.4M340 61.2v.4M353.3 32.2v.4M319.6 51.9l.4.2M360 27.6v.4M300 43.9v.4M80 41.6l.4-.1M6.7 108.3v.4M0 124.4v-.4M33.3 109.6v.5M33.3 110.1v.4M413.3 84.7v.4M420 88.5v.4M26.7 107.6v.4M466.7 89.3l.4.1M500 115.5v.4M140 18.3v.4M13.3 75.5v.4M266.7 1.5v.4M426.7 98.2v.4M426.7 92.1v.4M400 81.6l.4.2M66.7 49.8v.4M380 94.2v.3M440 99.3v.4M106.7 44.3v.4M73.1 70.9l.2-.2M13.3 143.4v.4M480 120.4v.4M160 50.3v.4M486.7 61.2v.4M173.3 54.5v.3M373.3 98.4h.4M26.7 116.3v.3M33.3 128.4v.3M60 80.6v.4M20 73.4v.4M346.7 33.1v.3M473.3 101v.4M206.7 78.4v.3M486.4 61.1l.3-.2M33.3 63.5v.3M260 78.5v.4M220 2.3v.3M426.7 92.7v.4M460 95.8v.4M220 85.7v.3M113.3 43.3v.3M440 83.6v.3M446.7 97.6v.4M460 102.8v.3M446.4 102.7h.3M453.3 101.5v.3M120 23.9v.3M453.3 97.3v.3M406.7 54.8v.3M486.7 60.9v.3M360 36.8v.3M493.3 116.4v.3M400 81.7v.3M66.7 49.5v.3M393.3 83.1v.3M206.7 5.5v.2M426.7 92.5v.2M33.3 63.8v.3M446.7 101v.2M453.3 102.6v.2M106.7 44v.3M46.7 91.5v.3M133.3 24.3v.3M440 100.1v.2M140 45.4l.2.1M106.7 27.4v.2M366.7 31.6v.3M440 83.4v.2M6.7 134.9v.2M120 23.7v.2M273.3 71.9v.2M373.3 98.4v.3M166.7 13.2v.2M20 101.5v.2M213.3 82.8v.2M60 83.9v.3M360 39.8v.2M126.7 27.2v.2M93.3 34.8v.2M93.3 51.7v.2M466.7 115.5v.2M273.3 58.7v.2M466.7 89.3v.2M420 97.4v.2M13.3 75.3v.2M86.7 38v.2M486.7 116.4v.2M106.7 27.6v.2M366.7 32.6v.2M293.3 22.3l.1.2M346.7 22.2v.2M113.3 25.1v.2M26.7 94.8v.2M473.3 102.3v.2M500 53.4v.1M440 99.8v.1M439.8 99.7h.2M153.3 14.5v.2M480 111.4v.2M93.3 47.8v.2M93.3 34.7h.2M126.7 41.9v.1M40 96.5l.1-.1M126.7 42l.1.1M453.3 88.7v.1M466.7 100.9v.2M293.2 22.2l.1.1M73.3 81.8v.2M433.3 96.7v.2M20 70.7v.1M46.7 57.6v.1M113.2 43.3l.1-.1M80 70.8v.1M320 51.9v.2M453.3 101.8v.1M440 99.9v.2M220 2.6v.1M466.7 113.9v.1M433.3 96.6v.1M433.3 96.9v.1M333.3 142.6v.1M53.3 86.2v.1M469.4 88.8l.1-.1M13.3 103.9v.1M453.3 101.9v.1M386.7 37.7v.1M6.7 126.1v.1M33.3 92v.1M446.7 102.7v.1M320 52.1M126.7 20.8v.1M333.3 30.1M106.7 45.1v.1M333.3 30.1M113.3 43.2v.1M80 41.6v.1M373.3 30.1M493.3 103.1M380 93.2v.1M73.3 70.7v.1M453.3 43.9M440 99.7v.1M400 81.6v.1M463.3 91.1h.1M13.3 109.3v.1M126.7 42v.1M40 96.5M0 116.7v-.1M140 45.4M93.3 34.7v.1M426.7 98.6v.1M293.3 22.3v.1M360 39.8M453.3 43.9M453.3 43.9M246.7 84.2"/></svg>