<svg xmlns="http://www.w3.org/2000/svg" width="100" height="100" viewBox="0 0 100 100"><path fill-rule="evenodd" clip-rule="evenodd" d="M63.943 64.941v-4.381c2.389-1.383 4-3.961 4-6.92 0-4.417-3.582-7.999-8-7.999-1.6 0-3.082.48-4.333 1.291-1.231-5.317-5.974-9.29-11.665-9.29-6.626 0-11.998 5.372-11.998 11.998 0 3.55 1.551 6.728 4 8.925v4.916c-4.777-2.768-8-7.922-8-13.841 0-8.835 7.163-15.997 15.998-15.997 6.004 0 11.229 3.311 13.965 8.203.664-.113 1.338-.205 2.033-.205 6.627 0 11.999 5.372 11.999 11.999 0 5.223-3.341 9.653-7.999 11.301zm-21.997-11.3c1.104 0 1.999.896 1.999 2v15.998c0 1.105-.895 2-1.999 2s-2-.895-2-2v-15.998c0-1.104.896-2 2-2zm7.999 4c1.104 0 2 .895 2 2v15.998c0 1.104-.896 2-2 2s-2-.896-2-2v-15.998c0-1.106.896-2 2-2zm7.999-4c1.104 0 1.999.896 1.999 2v15.998c0 1.105-.895 2-1.999 2s-2-.895-2-2v-15.998c0-1.104.896-2 2-2z"/></svg>