<svg xmlns="http://www.w3.org/2000/svg" width="100" height="100" viewBox="0 0 100 100"><path fill-rule="evenodd" clip-rule="evenodd" d="M59.659 46.733l-1.958 1.13c.188.682.298 1.396.298 2.137 0 .742-.109 1.456-.298 2.138l1.958 1.13c.956.553 1.284 1.775.731 2.732-.552.956-1.774 1.284-2.731.731l-1.954-1.128c-1.003 1.02-2.277 1.766-3.705 2.134v2.262c0 1.104-.896 2-2 2s-2-.896-2-2v-2.262c-1.428-.368-2.703-1.114-3.705-2.134l-1.954 1.128c-.957.553-2.18.225-2.731-.731-.553-.957-.225-2.18.731-2.732l1.958-1.13c-.189-.682-.298-1.396-.298-2.138 0-.741.108-1.455.298-2.137l-1.958-1.13c-.956-.553-1.284-1.775-.731-2.732.552-.956 1.774-1.284 2.731-.731l1.954 1.128c1.002-1.02 2.277-1.766 3.705-2.134v-2.262c0-1.104.896-2 2-2s2 .896 2 2v2.262c1.428.368 2.702 1.114 3.705 2.134l1.954-1.128c.957-.553 2.18-.225 2.731.731.553.957.225 2.18-.731 2.732zm-9.659-.732c-2.209 0-4 1.791-4 3.999 0 2.209 1.791 4 4 4s3.999-1.791 3.999-4c0-2.208-1.79-3.999-3.999-3.999z"/></svg>