<svg xmlns="http://www.w3.org/2000/svg" width="100" height="100" viewBox="0 0 100 100"><path fill-rule="evenodd" clip-rule="evenodd" d="M29.177 55.641c-.262-.646-.473-1.315-.648-2h43.47c0 .684-.07 1.348-.181 2h-42.641zm7.086-19.998c2.294-1.271 4.93-1.999 7.738-1.999 2.806 0 5.436.73 7.727 1.999h-15.465zm-8.121 11.999c.085-.682.218-1.347.387-1.999h40.396c.551.613 1.039 1.281 1.455 1.999h-42.238zm1.035-3.999c.281-.693.613-1.359.984-2h27.682l.123.205c.664-.114 1.338-.205 2.033-.205 2.451 0 4.729.738 6.627 2h-37.449zm2.347-4c.58-.723 1.225-1.388 1.92-2h21.122c.69.61 1.326 1.28 1.903 2h-24.945zm40.293 11.998h-43.675c-.082-.656-.139-1.32-.139-1.999h43.298c.227.643.401 1.311.516 1.999zm-.516 6c-.247.699-.555 1.367-.921 2h-38.856c-.505-.629-.957-1.299-1.363-2h41.14zm-37.857 4h35.48c-.68.758-1.447 1.434-2.299 1.999h-30.362c-1.016-.562-1.954-1.24-2.819-1.999z"/></svg>