<svg xmlns="http://www.w3.org/2000/svg" width="100" height="100" viewBox="0 0 100 100"><path fill-rule="evenodd" clip-rule="evenodd" d="M71.997 58h-3.999c-1.104 0-2-.896-2-2 0-1.105.896-2 2-2h3.999c1.105 0 2 .895 2 2 0 1.104-.894 2-2 2zm-7.856-13.313c-.781.781-2.048.781-2.828 0s-.78-2.047 0-2.828l2.828-2.828c.78-.78 2.047-.78 2.828 0 .78.781.78 2.047 0 2.828l-2.828 2.828zm-2.839 15.311h-4.381c.682-1.176 1.078-2.539 1.078-3.998 0-4.418-3.581-8-7.999-8-4.417 0-7.999 3.582-7.999 8 0 1.459.396 2.822 1.079 3.998h-4.381c-.444-1.252-.698-2.594-.698-3.998 0-6.627 5.373-11.999 11.999-11.999 6.627 0 11.999 5.371 11.999 11.999 0 1.404-.254 2.746-.697 3.998zm-11.302-19.997c-1.104 0-1.999-.896-1.999-2v-3.999c0-1.104.895-2 1.999-2s2 .896 2 2v3.999c0 1.105-.896 2-2 2zm-14.14 4.686l-2.828-2.828c-.781-.781-.781-2.047 0-2.828.78-.78 2.047-.78 2.828 0l2.828 2.828c.78.781.78 2.047 0 2.828-.781.781-2.047.781-2.828 0zm-1.858 11.313c0 1.104-.896 2-1.999 2h-4c-1.104 0-2-.896-2-2 0-1.105.896-2 2-2h4c1.103 0 1.999.895 1.999 2zm5.999 7.998h19.998c1.104 0 2 .896 2 2 0 1.105-.896 2-2 2h-19.998c-1.104 0-2-.895-2-2 0-1.103.896-2 2-2z"/></svg>