<svg xmlns="http://www.w3.org/2000/svg" width="100" height="100" viewBox="0 0 100 100"><path fill-rule="evenodd" clip-rule="evenodd" d="M65.999 52h-3c-1.105 0-2-.895-2-1.999s.895-2 2-2h3c1.104 0 2-.896 2-1.999 0-1.105-.896-2-2-2-1.105 0-2-.896-2-2s.895-2 2-2c.137 0 .271.014.402.041 3.121.211 5.596 2.783 5.596 5.959 0 3.312-2.685 5.998-5.998 5.998zm-10-3.999h-21.997c-1.104 0-1.999.896-1.999 2s.895 1.999 1.999 1.999h21.997c3.314 0 6 2.687 6 6 0 3.176-2.475 5.748-5.596 5.959-.131.027-.265.041-.404.041-1.104 0-2-.896-2-2 0-1.105.896-2 2-2 1.105 0 2-.896 2-2s-.895-2-2-2h-21.997c-3.313 0-5.999-2.686-5.999-5.999 0-3.175 2.475-5.747 5.596-5.959.131-.026.266-.04.403-.04h21.997c1.105 0 2-.896 2-2s-.895-2-2-2c-1.104 0-2-.895-2-2 0-1.104.896-2 2-2 .139 0 .273.015.404.041 3.121.211 5.596 2.783 5.596 5.959 0 3.312-2.686 5.999-6 5.999z"/></svg>