<svg xmlns="http://www.w3.org/2000/svg" width="100" height="100" viewBox="0 0 100 100"><path fill-rule="evenodd" clip-rule="evenodd" d="M63.999 64.943v-4.381c2.389-1.385 3.999-3.963 3.999-6.922 0-4.416-3.581-7.998-7.999-7.998-1.6 0-3.083.48-4.333 1.291-1.231-5.317-5.974-9.291-11.665-9.291-6.627 0-11.998 5.373-11.998 12 0 3.549 1.55 6.729 4 8.924v4.916c-4.777-2.768-8-7.922-8-13.84 0-8.836 7.163-15.999 15.998-15.999 6.004 0 11.229 3.312 13.965 8.204.664-.113 1.337-.205 2.033-.205 6.627 0 11.999 5.373 11.999 11.998 0 5.223-3.343 9.653-7.999 11.303zm-21.998-7.302c1.105 0 2 .896 2 2 0 1.105-.895 2-2 2-1.104 0-1.999-.895-1.999-2 0-1.104.895-2 1.999-2zm0 8c1.105 0 2 .895 2 2 0 1.104-.895 1.998-2 1.998-1.104 0-1.999-.895-1.999-1.998 0-1.106.895-2 1.999-2zm8-4c1.104 0 2 .895 2 2 0 1.104-.896 2-2 2-1.105 0-2-.896-2-2 0-1.106.895-2 2-2zm0 7.998c1.104 0 2 .896 2 2 0 1.105-.896 2-2 2-1.105 0-2-.895-2-2 0-1.104.895-2 2-2zm7.998-11.998c1.105 0 2 .896 2 2 0 1.105-.895 2-2 2-1.104 0-1.999-.895-1.999-2 0-1.104.896-2 1.999-2zm0 8c1.105 0 2 .895 2 2 0 1.104-.895 1.998-2 1.998-1.104 0-1.999-.895-1.999-1.998 0-1.106.896-2 1.999-2z"/></svg>