<svg xmlns="http://www.w3.org/2000/svg" width="100" height="100" viewBox="0 0 100 100"><path fill-rule="evenodd" clip-rule="evenodd" d="M69.763 46.758c1.368 1.949 2.179 4.318 2.179 6.883 0 6.625-5.371 11.998-11.998 11.998h-15.998c-8.836 0-15.998-7.162-15.998-15.998s7.162-15.998 15.998-15.998c2.002 0 3.914.375 5.68 1.047 1.635-4.682 6.078-8.047 11.318-8.047.755 0 1.491.078 2.207.212-.131.575-.207 1.173-.207 1.788 0 4.418 3.581 7.999 7.998 7.999.616 0 1.213-.076 1.789-.208.133.717.211 1.453.211 2.208-.001 3.133-1.212 5.979-3.179 8.116zm-37.816 2.883c0 6.627 5.371 11.998 11.998 11.998h15.998c4.418 0 7.999-3.582 7.999-7.998 0-4.418-3.581-8-7.999-8-1.6 0-3.083.482-4.334 1.291-1.231-5.316-5.973-9.29-11.664-9.29-6.627 0-11.998 5.372-11.998 11.999zm19.549-14.096h.002-.002zm7.659-4.695c-2.9.664-5.175 2.91-5.925 5.775 1.918 1.372 3.523 3.152 4.68 5.22.664-.113 1.337-.205 2.033-.205 2.618 0 5.033.85 7.005 2.271.858-.979 1.485-2.168 1.786-3.482-4.853-.904-8.675-4.723-9.579-9.579z"/></svg>