<svg xmlns="http://www.w3.org/2000/svg" width="100" height="100" viewBox="0 0 100 100"><path fill-rule="evenodd" clip-rule="evenodd" d="M50 61.998c-6.627 0-11.999-5.372-11.999-11.998 0-6.627 5.372-11.999 11.999-11.999.755 0 1.491.078 2.207.212-.132.576-.208 1.173-.208 1.788 0 4.418 3.582 7.999 8 7.999.615 0 1.212-.076 1.788-.208.133.717.211 1.452.211 2.208 0 6.626-5.372 11.998-11.998 11.998zm-1.788-19.79c-3.556.813-6.211 3.989-6.211 7.792 0 4.417 3.581 7.999 7.999 7.999 3.802 0 6.978-2.655 7.791-6.211-4.854-.904-8.676-4.726-9.579-9.58z"/></svg>