<svg xmlns="http://www.w3.org/2000/svg" width="100" height="100" viewBox="0 0 100 100"><path fill-rule="evenodd" clip-rule="evenodd" d="M69.819 46.758c.617.88 1.102 1.854 1.469 2.884h.019-4.387c-1.384-2.389-3.962-3.999-6.921-3.999-1.6 0-3.082.48-4.333 1.29-1.231-5.316-5.974-9.29-11.665-9.29-6.626 0-11.998 5.372-11.998 11.999h-4c0-8.835 7.163-15.998 15.998-15.998 2.003 0 3.914.376 5.68 1.048 1.635-4.683 6.079-8.047 11.318-8.047.756 0 1.492.078 2.208.211-.132.576-.208 1.173-.208 1.789 0 4.418 3.582 7.998 7.999 7.998.616 0 1.212-.076 1.788-.207.134.717.212 1.452.212 2.207 0 3.134-1.212 5.978-3.179 8.115zm-10.607-15.906c-2.9.663-5.175 2.91-5.924 5.774 1.916 1.372 3.521 3.153 4.678 5.222.664-.114 1.338-.205 2.033-.205 2.619 0 5.033.848 7.006 2.271.858-.98 1.485-2.169 1.785-3.482-4.853-.905-8.675-4.726-9.578-9.58zm-29.209 22.789h39.996c1.104 0 1.999.896 1.999 2s-.896 2-1.999 2h-39.996c-1.104 0-2-.896-2-2s.896-2 2-2zm0 8h39.996c1.104 0 1.999.895 1.999 1.999s-.896 2-1.999 2h-39.996c-1.104 0-2-.896-2-2s.896-1.999 2-1.999zm0 7.998h39.996c1.104 0 1.999.896 1.999 2s-.896 2-1.999 2h-39.996c-1.104 0-2-.896-2-2s.896-2 2-2z"/></svg>