<svg xmlns="http://www.w3.org/2000/svg" width="100" height="100" viewBox="0 0 100 100"><path fill-rule="evenodd" clip-rule="evenodd" d="M79.996 43.642h-3.999c-1.104 0-2-.895-2-2 0-1.104.896-2 2-2h3.999c1.104 0 2 .896 2 2 0 1.106-.895 2-2 2zm-7.856-13.312c-.781.781-2.047.781-2.828 0s-.781-2.047 0-2.828l2.828-2.828c.781-.781 2.047-.781 2.828 0 .78.781.78 2.047 0 2.828l-2.828 2.828zm-2.948 15.607c1.342 1.6 2.271 3.555 2.633 5.704h-.008c.109.652.18 1.318.18 2 0 6.627-5.372 12-11.998 12h-1.062l3.584-4.412c3.181-1.057 5.478-4.053 5.478-7.588 0-.691-.098-1.359-.263-2-.889-3.448-4.011-5.999-7.736-5.999-1.601 0-3.083.48-4.334 1.291-1.231-5.316-5.973-9.291-11.664-9.291-6.627 0-11.999 5.373-11.999 12 0 .682.07 1.348.181 1.999h-.014c.764 4.549 4.088 8.223 8.438 9.506l-1.35 3.777c-5.903-1.83-10.33-6.99-11.116-13.283-.082-.657-.138-1.321-.138-1.999 0-8.836 7.162-15.999 15.998-15.999 1.572 0 3.089.232 4.523.655 2.195-2.828 5.618-4.654 9.475-4.654 6.627 0 11.999 5.371 11.999 11.998-.001 1.516-.294 2.959-.807 4.295zm-11.193-12.293c-2.212 0-4.215.898-5.662 2.351 2.34 1.435 4.285 3.451 5.629 5.853.664-.113 1.337-.205 2.033-.205 2.125 0 4.118.559 5.85 1.527.096-.494.149-1.004.149-1.527 0-4.418-3.581-7.999-7.999-7.999zm0-7.999c-1.104 0-2-.896-2-2v-3.999c0-1.104.896-2 2-2s2 .896 2 2v3.999c0 1.104-.895 2-2 2zm-14.141 4.685l-2.827-2.828c-.781-.781-.781-2.047 0-2.828.78-.781 2.047-.781 2.827 0l2.828 2.828c.781.781.781 2.047 0 2.828-.78.781-2.046.781-2.828 0zm4.142 21.311h9.999l-5.999 10h6.999l-12.998 15.998 3.6-11.998h-6.6l4.999-14z"/></svg>