<svg xmlns="http://www.w3.org/2000/svg" viewBox="0 0 16 16" enable-background="new 0 0 16 16"><style type="text/css">.st0{fill:#FF5500;}</style><path class="st0" d="M13.9 6.9h-1.1c-.3 0-.5-.2-.5-.5s.2-.5.5-.5h1.1c.3 0 .5.2.5.5s-.2.5-.5.5zm-2.1-3.5c-.2.2-.5.2-.8 0-.2-.2-.2-.5 0-.8l.8-.8c.2-.2.5-.2.8 0 .2.2.2.5 0 .8l-.8.8zm-.8 4.1c.5.6.7 1.3.7 2.1 0 1.4-.9 2.6-2.1 3v-1.2c.6-.4 1.1-1.1 1.1-1.8 0-1.2-1-2.1-2.1-2.1-.4 0-.8.1-1.2.3-.4-1.4-1.6-2.5-3.1-2.5-1.8 0-3.2 1.4-3.2 3.2 0 .9.4 1.8 1.1 2.4v1.3c-1.3-.7-2.2-2.1-2.2-3.7 0-2.4 1.9-4.3 4.3-4.3.4 0 .8.1 1.2.2.6-.7 1.5-1.2 2.5-1.2 1.8 0 3.2 1.4 3.2 3.2 0 .4-.1.8-.2 1.1zm-3-3.2c-.6 0-1.1.2-1.5.6.6.4 1.1.9 1.5 1.6.2 0 .4-.1.5-.1.6 0 1.1.1 1.6.4v-.4c0-1.2-.9-2.1-2.1-2.1zm0-2.2c-.3 0-.5-.2-.5-.5v-1.1c0-.3.2-.5.5-.5s.5.2.5.5v1.1c0 .3-.2.5-.5.5zm-3.8 1.3l-.7-.8c-.2-.2-.2-.5 0-.8.2-.2.5-.2.8 0l.7.8c.2.2.2.5 0 .8-.2.2-.6.2-.8 0zm-.5 6.2c.3 0 .5.2.5.5v4.3c0 .3-.2.5-.5.5s-.5-.2-.5-.5v-4.3c0-.3.2-.5.5-.5zm2.2 1.1c.3 0 .5.2.5.5v4.3c0 .3-.2.5-.5.5s-.5-.2-.5-.5v-4.3c-.1-.3.2-.5.5-.5zm2.1-1.1c.3 0 .5.2.5.5v4.3c0 .3-.2.5-.5.5s-.5-.2-.5-.5v-4.3c0-.3.2-.5.5-.5z"/></svg>