<svg xmlns="http://www.w3.org/2000/svg" width="100" height="100" viewBox="0 0 100 100"><path fill-rule="evenodd" clip-rule="evenodd" d="M61.998 65.461v-4.082c3.448-.891 6-4.012 6-7.738 0-4.417-3.582-7.999-7.999-7.999-1.601 0-3.084.48-4.334 1.291-1.231-5.317-5.973-9.291-11.664-9.291-6.627 0-11.999 5.373-11.999 12 0 4.438 2.417 8.305 5.999 10.379v4.445c-5.86-2.375-9.998-8.113-9.998-14.825 0-8.835 7.162-15.999 15.998-15.999 6.004 0 11.229 3.312 13.965 8.204.664-.113 1.336-.205 2.033-.205 6.626 0 11.998 5.373 11.998 11.998 0 5.947-4.326 10.867-9.999 11.822zm-18.926-5.82c.553-.957 1.775-1.283 2.732-.732l2.196 1.267v-2.535c0-1.104.896-2 2-2s2 .896 2 2v2.535l2.195-1.268c.957-.551 2.18-.225 2.731.732.553.957.225 2.18-.731 2.732l-2.196 1.268 2.196 1.268c.956.553 1.284 1.775.731 2.732-.552.955-1.774 1.283-2.731.73l-2.195-1.266v2.535c0 1.105-.896 2-2 2s-2-.895-2-2v-2.535l-2.195 1.268c-.957.553-2.18.225-2.732-.73-.552-.957-.225-2.18.732-2.732l2.195-1.269-2.195-1.268c-.957-.553-1.284-1.775-.733-2.732zm6.928 6c1.104 0 2-.896 2-2 0-1.105-.896-2-2-2s-2 .895-2 2c0 1.103.896 2 2 2z"/></svg>