<svg xmlns="http://www.w3.org/2000/svg" width="100" height="100" viewBox="0 0 100 100"><path fill-rule="evenodd" clip-rule="evenodd" d="M69.762 46.758c1.369 1.949 2.18 4.318 2.18 6.883 0 5.221-3.342 9.652-7.998 11.301v-4.381c2.389-1.385 3.998-3.961 3.998-6.92 0-4.418-3.58-8-7.998-8-1.6 0-3.084.482-4.334 1.291-1.23-5.316-5.973-9.29-11.664-9.29-6.627 0-11.998 5.372-11.998 11.999 0 3.549 1.549 6.729 3.998 8.926v4.914c-4.775-2.768-7.998-7.922-7.998-13.84 0-8.836 7.162-15.998 15.998-15.998 2.002 0 3.914.375 5.68 1.047 1.635-4.682 6.078-8.047 11.318-8.047.756 0 1.49.078 2.207.212-.131.575-.207 1.173-.207 1.788 0 4.418 3.58 7.999 7.998 7.999.615 0 1.213-.076 1.789-.208.133.717.211 1.453.211 2.208-.001 3.133-1.212 5.978-3.18 8.116zm-10.608-15.908c-2.9.664-5.174 2.91-5.924 5.775 1.918 1.372 3.523 3.152 4.68 5.221.664-.113 1.336-.205 2.033-.205 2.617 0 5.033.849 7.006 2.271.857-.979 1.484-2.168 1.785-3.482-4.853-.905-8.675-4.725-9.58-9.58zm-17.209 22.791c1.105 0 2 .895 2 2v3.998c0 1.105-.895 2-2 2-1.104 0-2-.895-2-2v-3.998c0-1.106.897-2 2-2zm0 11.998c1.105 0 2 .895 2 2v3.998c0 1.105-.895 2-2 2-1.104 0-2-.895-2-2v-3.998c0-1.106.897-2 2-2zm8-8c1.104 0 1.998.896 1.998 2v4c0 1.104-.895 2-1.998 2-1.105 0-2-.896-2-2v-4c0-1.104.895-2 2-2zm0 12c1.104 0 1.998.895 1.998 1.998v4c0 1.105-.895 2-1.998 2-1.105 0-2-.895-2-2v-4c0-1.104.895-1.998 2-1.998zm7.998-15.998c1.105 0 2 .895 2 2v3.998c0 1.105-.895 2-2 2-1.104 0-2-.895-2-2v-3.998c0-1.106.897-2 2-2zm0 11.998c1.105 0 2 .895 2 2v3.998c0 1.105-.895 2-2 2-1.104 0-2-.895-2-2v-3.998c0-1.106.897-2 2-2z"/></svg>