<svg xmlns="http://www.w3.org/2000/svg" width="100" height="100" viewBox="0 0 100 100"><path fill-rule="evenodd" clip-rule="evenodd" d="M69.819 46.758c1.004 1.431 1.699 3.09 2.003 4.883h-.004c.109.652.18 1.317.18 2 0 6.627-5.372 11.999-11.999 11.999h-1.062l3.584-4.412c3.181-1.057 5.478-4.051 5.478-7.587 0-.691-.098-1.359-.263-2-.89-3.447-4.011-5.999-7.737-5.999-1.6 0-3.082.481-4.333 1.291-1.231-5.316-5.974-9.29-11.665-9.29-6.626 0-11.998 5.372-11.998 11.999 0 .683.07 1.348.18 1.999h-.014c.764 4.548 4.088 8.223 8.438 9.505l-1.35 3.778c-5.903-1.831-10.331-6.991-11.116-13.283-.082-.656-.139-1.32-.139-1.999 0-8.836 7.163-15.998 15.998-15.998 2.003 0 3.914.375 5.68 1.048 1.635-4.683 6.079-8.047 11.318-8.047.756 0 1.492.078 2.208.211-.132.576-.208 1.173-.208 1.788 0 4.418 3.582 7.999 7.999 7.999.616 0 1.212-.076 1.788-.207.134.716.212 1.452.212 2.207.001 3.133-1.211 5.978-3.178 8.115zm-10.607-15.906c-2.9.663-5.175 2.909-5.924 5.774 1.916 1.372 3.521 3.153 4.678 5.222.664-.114 1.338-.205 2.033-.205 2.619 0 5.033.848 7.006 2.271.858-.979 1.485-2.168 1.785-3.482-4.853-.906-8.675-4.726-9.578-9.58zm-11.211 20.789h9.999l-5.999 9.999h6.999l-12.999 15.998 3.6-11.998h-6.599l4.999-13.999z"/></svg>