<svg xmlns="http://www.w3.org/2000/svg" width="100" height="100" viewBox="0 0 100 100"><path fill-rule="evenodd" clip-rule="evenodd" d="M59.943 41.642c-.696 0-1.369.092-2.033.205-2.736-4.892-7.961-8.203-13.965-8.203-8.835 0-15.998 7.162-15.998 15.997 0 5.992 3.3 11.207 8.177 13.947.276-1.262.892-2.465 1.873-3.445l.057-.057c-3.644-2.061-6.106-5.963-6.106-10.445 0-6.626 5.372-11.998 11.998-11.998 5.691 0 10.433 3.974 11.665 9.29 1.25-.81 2.733-1.291 4.333-1.291 4.418 0 7.999 3.581 7.999 7.999 0 3.443-2.182 6.371-5.235 7.498.788 1.146 1.194 2.471 1.222 3.807 4.665-1.645 8.014-6.078 8.014-11.305-.002-6.627-5.374-11.999-12.001-11.999zm-16.998 19.208l-2.121 2.121c-1.171 1.172-1.171 3.07 0 4.242 1.172 1.172 3.071 1.172 4.242 0 1.172-1.172 1.172-3.07 0-4.242l-2.121-2.121zm7 7.998l-2.121 2.121c-1.172 1.172-1.172 3.072 0 4.242 1.171 1.172 3.07 1.172 4.241 0 1.172-1.17 1.172-3.07 0-4.242l-2.12-2.121zm6.999-7.998l-2.121 2.121c-1.172 1.172-1.172 3.07 0 4.242 1.171 1.172 3.07 1.172 4.242 0 1.171-1.172 1.171-3.07 0-4.242l-2.121-2.121z"/></svg>